<?xml version="1.0" encoding="utf-8"?>
<svg version="1.1" xmlns:xlink="http://www.w3.org/1999/xlink" width="15px" height="15px" xmlns="http://www.w3.org/2000/svg">
  <g transform="matrix(1 0 0 1 -13 -18 )">
    <path d="M 10.5908203125 10.5908203125  C 11.1149088541667 10.0667317708333  11.4811197916667 9.453125  11.689453125 8.75  L 10.625 8.75  C 10.4557291666667 8.75  10.3092447916667 8.68815104166667  10.185546875 8.564453125  C 10.0618489583333 8.44075520833333  10 8.29427083333333  10 8.125  L 10 6.875  C 10 6.70572916666667  10.0618489583333 6.55924479166667  10.185546875 6.435546875  C 10.3092447916667 6.31184895833333  10.4557291666667 6.25  10.625 6.25  L 11.689453125 6.25  C 11.4811197916667 5.546875  11.1149088541667 4.93326822916667  10.5908203125 4.4091796875  C 10.0667317708333 3.88509114583333  9.453125 3.51888020833333  8.75 3.310546875  L 8.75 4.375  C 8.75 4.54427083333333  8.68815104166667 4.69075520833333  8.564453125 4.814453125  C 8.44075520833333 4.93815104166666  8.29427083333333 5  8.125 5  L 6.875 5  C 6.70572916666667 5  6.55924479166667 4.93815104166666  6.435546875 4.814453125  C 6.31184895833333 4.69075520833333  6.25 4.54427083333333  6.25 4.375  L 6.25 3.310546875  C 5.546875 3.51888020833333  4.93326822916667 3.88509114583333  4.4091796875 4.4091796875  C 3.88509114583333 4.93326822916667  3.51888020833333 5.546875  3.310546875 6.25  L 4.375 6.25  C 4.54427083333333 6.25  4.69075520833333 6.31184895833333  4.814453125 6.435546875  C 4.93815104166667 6.55924479166667  5 6.70572916666667  5 6.875  L 5 8.125  C 5 8.29427083333333  4.93815104166667 8.44075520833333  4.814453125 8.564453125  C 4.69075520833333 8.68815104166667  4.54427083333333 8.75  4.375 8.75  L 3.310546875 8.75  C 3.51888020833333 9.453125  3.88509114583333 10.0667317708333  4.4091796875 10.5908203125  C 4.93326822916667 11.1149088541667  5.546875 11.4811197916667  6.25 11.689453125  L 6.25 10.625  C 6.25 10.4557291666667  6.31184895833333 10.3092447916667  6.435546875 10.185546875  C 6.55924479166667 10.0618489583333  6.70572916666667 10  6.875 10  L 8.125 10  C 8.29427083333333 10  8.44075520833333 10.0618489583333  8.564453125 10.185546875  C 8.68815104166667 10.3092447916667  8.75 10.4557291666667  8.75 10.625  L 8.75 11.689453125  C 9.453125 11.4811197916667  10.0667317708333 11.1149088541667  10.5908203125 10.5908203125  Z M 14.814453125 6.435546875  C 14.9381510416667 6.55924479166667  15 6.70572916666667  15 6.875  L 15 8.125  C 15 8.29427083333333  14.9381510416667 8.44075520833333  14.814453125 8.564453125  C 14.6907552083333 8.68815104166667  14.5442708333333 8.75  14.375 8.75  L 12.978515625 8.75  C 12.7376302083333 9.79817708333333  12.2347005208333 10.7047526041667  11.4697265625 11.4697265625  C 10.7047526041667 12.2347005208333  9.79817708333333 12.7376302083333  8.75 12.978515625  L 8.75 14.375  C 8.75 14.5442708333333  8.68815104166667 14.6907552083333  8.564453125 14.814453125  C 8.44075520833333 14.9381510416667  8.29427083333333 15  8.125 15  L 6.875 15  C 6.70572916666667 15  6.55924479166667 14.9381510416667  6.435546875 14.814453125  C 6.31184895833333 14.6907552083333  6.25 14.5442708333333  6.25 14.375  L 6.25 12.978515625  C 5.20182291666667 12.7376302083333  4.29524739583333 12.2347005208333  3.5302734375 11.4697265625  C 2.76529947916667 10.7047526041667  2.26236979166667 9.79817708333333  2.021484375 8.75  L 0.625 8.75  C 0.455729166666667 8.75  0.309244791666667 8.68815104166667  0.185546875 8.564453125  C 0.0618489583333333 8.44075520833333  0 8.29427083333333  0 8.125  L 0 6.875  C 0 6.70572916666667  0.0618489583333333 6.55924479166667  0.185546875 6.435546875  C 0.309244791666667 6.31184895833333  0.455729166666667 6.25  0.625 6.25  L 2.021484375 6.25  C 2.26236979166667 5.20182291666667  2.76529947916667 4.29524739583333  3.5302734375 3.5302734375  C 4.29524739583333 2.76529947916667  5.20182291666667 2.26236979166667  6.25 2.021484375  L 6.25 0.624999999999999  C 6.25 0.455729166666665  6.31184895833333 0.309244791666665  6.435546875 0.185546874999999  C 6.55924479166667 0.0618489583333326  6.70572916666667 0  6.875 0  L 8.125 0  C 8.29427083333333 0  8.44075520833333 0.0618489583333326  8.564453125 0.185546874999999  C 8.68815104166667 0.309244791666665  8.75 0.455729166666665  8.75 0.624999999999999  L 8.75 2.021484375  C 9.79817708333333 2.26236979166667  10.7047526041667 2.76529947916667  11.4697265625 3.5302734375  C 12.2347005208333 4.29524739583333  12.7376302083333 5.20182291666667  12.978515625 6.25  L 14.375 6.25  C 14.5442708333333 6.25  14.6907552083333 6.31184895833333  14.814453125 6.435546875  Z " fill-rule="nonzero" fill="#046a6a" stroke="none" fill-opacity="0.788235294117647" transform="matrix(1 0 0 1 13 18 )" />
  </g>
</svg>