<?xml version="1.0" encoding="utf-8"?>
<svg version="1.1" xmlns:xlink="http://www.w3.org/1999/xlink" width="81px" height="81px" xmlns="http://www.w3.org/2000/svg">
  <g transform="matrix(1 0 0 1 -44 -110 )">
    <path d="M 24.7700892857143 3.20926339285714  C 29.7723214285714 1.06975446428571  35.015625 0  40.5 0  C 45.984375 0  51.2276785714286 1.06975446428571  56.2299107142857 3.20926339285714  C 61.2321428571429 5.34877232142857  65.5412946428571 8.2265625  69.1573660714286 11.8426339285714  C 72.7734375 15.4587053571429  75.6512276785714 19.7678571428571  77.7907366071429 24.7700892857143  C 79.9302455357143 29.7723214285714  81 35.015625  81 40.5  C 81 45.9542410714286  79.9377790178571 51.1824776785714  77.8133370535714 56.1847098214286  C 75.6888950892857 61.1869419642857  72.8186383928571 65.49609375  69.2025669642857 69.1121651785714  C 65.5864955357143 72.7282366071429  61.27734375 75.6135602678571  56.2751116071429 77.7681361607143  C 51.2728794642857 79.9227120535714  46.0145089285714 81  40.5 81  C 34.9854910714286 81  29.7271205357143 79.9302455357143  24.7248883928571 77.7907366071429  C 19.72265625 75.6512276785714  15.4210379464286 72.7659040178571  11.8200334821429 69.134765625  C 8.21902901785714 65.5036272321429  5.34877232142857 61.1944754464286  3.20926339285714 56.2073102678571  C 1.06975446428571 51.2201450892857  0 45.984375  0 40.5  C 0 35.015625  1.06975446428571 29.7723214285714  3.20926339285714 24.7700892857143  C 5.34877232142857 19.7678571428571  8.2265625 15.4587053571429  11.8426339285714 11.8426339285714  C 15.4587053571429 8.2265625  19.7678571428571 5.34877232142857  24.7700892857143 3.20926339285714  Z M 54.6478794642857 46.2857142857143  C 61.8800223214286 46.2857142857143  66.4905133928571 51.2126116071429  68.4793526785714 61.06640625  C 72.9693080357143 54.8889508928571  75.2142857142857 48.0334821428571  75.2142857142857 40.5  C 75.2142857142857 35.7991071428571  74.2952008928572 31.3091517857143  72.45703125 27.0301339285714  C 70.6188616071429 22.7511160714286  68.1478794642857 19.0597098214286  65.0440848214286 15.9559151785714  C 61.9402901785714 12.8521205357143  58.2488839285714 10.3811383928571  53.9698660714286 8.54296875  C 49.6908482142857 6.70479910714285  45.2008928571429 5.78571428571428  40.5 5.78571428571428  C 35.7991071428571 5.78571428571428  31.3091517857143 6.70479910714285  27.0301339285714 8.54296875  C 22.7511160714286 10.3811383928571  19.0597098214286 12.8521205357143  15.9559151785714 15.9559151785714  C 12.8521205357143 19.0597098214286  10.3811383928571 22.7511160714286  8.54296875 27.0301339285714  C 6.70479910714286 31.3091517857143  5.78571428571429 35.7991071428571  5.78571428571429 40.5  C 5.78571428571429 48.0334821428571  8.03069196428572 54.8889508928571  12.5206473214286 61.06640625  C 14.5094866071429 51.2126116071429  19.1199776785714 46.2857142857143  26.3521205357143 46.2857142857143  C 30.2996651785714 50.1428571428571  35.015625 52.0714285714286  40.5 52.0714285714286  C 45.984375 52.0714285714286  50.7003348214286 50.1428571428571  54.6478794642857 46.2857142857143  Z M 52.7720424107143 44.0934709821429  C 56.162109375 40.7034040178571  57.8571428571429 36.6127232142857  57.8571428571429 31.8214285714286  C 57.8571428571429 27.0301339285714  56.162109375 22.939453125  52.7720424107143 19.5493861607143  C 49.3819754464286 16.1593191964286  45.2912946428571 14.4642857142857  40.5 14.4642857142857  C 35.7087053571429 14.4642857142857  31.6180245535714 16.1593191964286  28.2279575892857 19.5493861607143  C 24.837890625 22.939453125  23.1428571428571 27.0301339285714  23.1428571428571 31.8214285714286  C 23.1428571428571 36.6127232142857  24.837890625 40.7034040178571  28.2279575892857 44.0934709821429  C 31.6180245535714 47.4835379464286  35.7087053571429 49.1785714285714  40.5 49.1785714285714  C 45.2912946428571 49.1785714285714  49.3819754464286 47.4835379464286  52.7720424107143 44.0934709821429  Z " fill-rule="nonzero" fill="#ffffff" stroke="none" transform="matrix(1 0 0 1 44 110 )" />
  </g>
</svg>