<?xml version="1.0" encoding="utf-8"?>
<svg version="1.1" xmlns:xlink="http://www.w3.org/1999/xlink" width="16px" height="13px" xmlns="http://www.w3.org/2000/svg">
  <g transform="matrix(1 0 0 1 -38 -101 )">
    <path d="M 6.51020408163265 11.887890625  C 6.50340136054422 11.9251302083333  6.51020408163265 11.9708333333333  6.53061224489796 12.025  C 6.53061224489796 12.0520833333333  6.53401360544218 12.1197916666667  6.54081632653061 12.228125  C 6.54761904761905 12.3364583333333  6.54931972789116 12.426171875  6.54591836734694 12.497265625  C 6.54251700680272 12.568359375  6.53231292517007 12.6479166666667  6.51530612244898 12.7359375  C 6.49829931972789 12.8239583333333  6.46428571428571 12.8899739583333  6.41326530612245 12.933984375  C 6.36224489795918 12.9779947916667  6.29251700680272 13  6.20408163265306 13  L 2.93877551020408 13  C 2.12925170068027 13  1.43707482993197 12.7139322916667  0.862244897959184 12.141796875  C 0.287414965986395 11.5696614583333  0 10.8807291666667  0 10.075  L 0 2.925  C 0 2.11927083333333  0.287414965986395 1.43033854166667  0.862244897959184 0.858203125  C 1.43707482993197 0.286067708333332  2.12925170068027 0  2.93877551020408 0  L 6.20408163265306 0  C 6.29251700680272 0  6.36904761904762 0.0321614583333315  6.43367346938776 0.0964843750000003  C 6.49829931972789 0.160807291666666  6.53061224489796 0.236979166666666  6.53061224489796 0.325  C 6.53061224489796 0.352083333333332  6.53401360544218 0.419791666666666  6.54081632653061 0.528125  C 6.54761904761905 0.636458333333332  6.54931972789116 0.726171875000001  6.54591836734694 0.797265624999999  C 6.54251700680272 0.868359375  6.53231292517007 0.947916666666666  6.51530612244898 1.0359375  C 6.49829931972789 1.12395833333333  6.46428571428571 1.18997395833333  6.41326530612245 1.233984375  C 6.36224489795918 1.27799479166667  6.29251700680272 1.3  6.20408163265306 1.3  L 2.93877551020408 1.3  C 2.48979591836735 1.3  2.10544217687075 1.45911458333333  1.78571428571429 1.77734375  C 1.46598639455782 2.09557291666667  1.30612244897959 2.478125  1.30612244897959 2.925  L 1.30612244897959 10.075  C 1.30612244897959 10.521875  1.46598639455782 10.9044270833333  1.78571428571429 11.22265625  C 2.10544217687075 11.5408854166667  2.48979591836735 11.7  2.93877551020408 11.7  L 5.87755102040816 11.7  L 5.98979591836735 11.7  L 6.12244897959184 11.7  C 6.12244897959184 11.7  6.16156462585034 11.7033854166667  6.23979591836735 11.71015625  C 6.31802721088435 11.7169270833333  6.35714285714286 11.7270833333333  6.35714285714286 11.740625  C 6.35714285714286 11.7541666666667  6.3843537414966 11.7727864583333  6.43877551020408 11.796484375  C 6.49319727891157 11.8201822916667  6.51700680272109 11.8506510416667  6.51020408163265 11.887890625  Z M 15.8061224489796 6.04296875  C 15.9353741496599 6.17161458333333  16 6.32395833333333  16 6.5  C 16 6.67604166666667  15.9353741496599 6.82838541666667  15.8061224489796 6.95703125  L 10.2551020408163 12.48203125  C 10.1258503401361 12.6106770833333  9.97278911564626 12.675  9.79591836734694 12.675  C 9.61904761904762 12.675  9.46598639455782 12.6106770833333  9.33673469387755 12.48203125  C 9.20748299319728 12.3533854166667  9.14285714285714 12.2010416666667  9.14285714285714 12.025  L 9.14285714285714 9.1  L 4.57142857142857 9.1  C 4.39455782312925 9.1  4.24149659863946 9.03567708333333  4.11224489795918 8.90703125  C 3.98299319727891 8.77838541666667  3.91836734693878 8.62604166666667  3.91836734693878 8.45  L 3.91836734693878 4.55  C 3.91836734693878 4.37395833333333  3.98299319727891 4.22161458333333  4.11224489795918 4.09296875  C 4.24149659863946 3.96432291666667  4.39455782312925 3.9  4.57142857142857 3.9  L 9.14285714285714 3.9  L 9.14285714285714 0.974999999999999  C 9.14285714285714 0.798958333333331  9.20748299319728 0.646614583333331  9.33673469387755 0.517968749999999  C 9.46598639455782 0.389322916666666  9.61904761904762 0.325  9.79591836734694 0.325  C 9.97278911564626 0.325  10.1258503401361 0.389322916666666  10.2551020408163 0.517968749999999  L 15.8061224489796 6.04296875  Z " fill-rule="nonzero" fill="#d9001b" stroke="none" transform="matrix(1 0 0 1 38 101 )" />
  </g>
</svg>