<?xml version="1.0" encoding="utf-8"?>
<svg version="1.1" xmlns:xlink="http://www.w3.org/1999/xlink" width="14px" height="13px" xmlns="http://www.w3.org/2000/svg">
  <g transform="matrix(1 0 0 1 -37 -325 )">
    <path d="M 3.73333333333333 4.64285714285714  C 3.73333333333333 5.31510416666667  3.93020833333333 5.93415178571429  4.32395833333333 6.5  C 3.53645833333333 6.52418154761905  2.89236111111111 6.83370535714286  2.39166666666667 7.42857142857143  L 1.41458333333333 7.42857142857143  C 1.01597222222222 7.42857142857143  0.680555555555556 7.33063616071429  0.408333333333333 7.134765625  C 0.136111111111111 6.93889508928571  0 6.65234375  0 6.27511160714286  C 0 4.56789434523809  0.301388888888889 3.71428571428571  0.904166666666667 3.71428571428571  C 0.933333333333333 3.71428571428571  1.0390625 3.76506696428571  1.22135416666667 3.86662946428571  C 1.40364583333333 3.96819196428571  1.640625 4.07096354166667  1.93229166666667 4.17494419642857  C 2.22395833333333 4.27892485119048  2.51319444444444 4.33091517857143  2.8 4.33091517857143  C 3.12569444444444 4.33091517857143  3.44895833333333 4.27529761904762  3.76979166666667 4.1640625  C 3.74548611111111 4.34300595238095  3.73333333333333 4.50260416666667  3.73333333333333 4.64285714285714  Z M 12.1078125 10.3702566964286  C 12.1248263888889 10.614490327381  12.1333333333333 10.8647693452381  12.1333333333333 11.12109375  C 12.1333333333333 11.7014508928571  11.9559027777778 12.1596912202381  11.6010416666667 12.4958147321429  C 11.2461805555556 12.8319382440476  10.7746527777778 13  10.1864583333333 13  L 3.81354166666667 13  C 3.22534722222222 13  2.75381944444445 12.8319382440476  2.39895833333333 12.4958147321429  C 2.04409722222222 12.1596912202381  1.86666666666667 11.7014508928571  1.86666666666667 11.12109375  C 1.86666666666667 10.8647693452381  1.87517361111111 10.614490327381  1.8921875 10.3702566964286  C 1.90920138888889 10.1260230654762  1.94322916666667 9.86244419642857  1.99427083333333 9.57952008928571  C 2.0453125 9.29659598214286  2.10972222222222 9.03422619047619  2.1875 8.79241071428571  C 2.26527777777778 8.55059523809524  2.36979166666667 8.31482514880952  2.50104166666667 8.08510044642857  C 2.63229166666667 7.85537574404762  2.78298611111111 7.65950520833333  2.953125 7.49748883928571  C 3.12326388888889 7.3354724702381  3.33107638888889 7.20610119047619  3.5765625 7.109375  C 3.82204861111111 7.01264880952381  4.09305555555556 6.96428571428571  4.38958333333333 6.96428571428571  C 4.43819444444444 6.96428571428571  4.54270833333333 7.01627604166667  4.703125 7.12025669642857  C 4.86354166666667 7.22423735119048  5.04097222222222 7.3403087797619  5.23541666666667 7.46847098214286  C 5.42986111111111 7.59663318452381  5.68993055555556 7.71270461309524  6.015625 7.81668526785714  C 6.34131944444445 7.92066592261905  6.66944444444445 7.97265625  7 7.97265625  C 7.33055555555556 7.97265625  7.65868055555556 7.92066592261905  7.984375 7.81668526785714  C 8.31006944444445 7.71270461309524  8.57013888888889 7.59663318452381  8.76458333333333 7.46847098214286  C 8.95902777777778 7.3403087797619  9.13645833333333 7.22423735119048  9.296875 7.12025669642857  C 9.45729166666667 7.01627604166667  9.56180555555556 6.96428571428571  9.61041666666667 6.96428571428571  C 9.90694444444444 6.96428571428571  10.1779513888889 7.01264880952381  10.4234375 7.109375  C 10.6689236111111 7.20610119047619  10.8767361111111 7.3354724702381  11.046875 7.49748883928571  C 11.2170138888889 7.65950520833333  11.3677083333333 7.85537574404762  11.4989583333333 8.08510044642857  C 11.6302083333333 8.31482514880952  11.7347222222222 8.55059523809524  11.8125 8.79241071428571  C 11.8902777777778 9.03422619047619  11.9546875 9.29659598214286  12.0057291666667 9.57952008928571  C 12.0567708333333 9.86244419642857  12.0907986111111 10.1260230654762  12.1078125 10.3702566964286  Z M 4.11979166666667 0.544084821428572  C 4.484375 0.906808035714286  4.66666666666667 1.34449404761905  4.66666666666667 1.85714285714286  C 4.66666666666667 2.36979166666667  4.484375 2.80747767857143  4.11979166666667 3.17020089285714  C 3.75520833333333 3.53292410714286  3.31527777777778 3.71428571428571  2.8 3.71428571428571  C 2.28472222222222 3.71428571428571  1.84479166666667 3.53292410714286  1.48020833333333 3.17020089285714  C 1.115625 2.80747767857143  0.933333333333333 2.36979166666667  0.933333333333333 1.85714285714286  C 0.933333333333333 1.34449404761905  1.115625 0.906808035714286  1.48020833333333 0.544084821428572  C 1.84479166666667 0.181361607142858  2.28472222222222 0  2.8 0  C 3.31527777777778 0  3.75520833333333 0.181361607142858  4.11979166666667 0.544084821428572  Z M 8.9796875 2.67327008928571  C 9.5265625 3.21735491071429  9.8 3.87388392857143  9.8 4.64285714285714  C 9.8 5.41183035714286  9.5265625 6.068359375  8.9796875 6.61244419642857  C 8.4328125 7.15652901785714  7.77291666666667 7.42857142857143  7 7.42857142857143  C 6.22708333333333 7.42857142857143  5.5671875 7.15652901785714  5.0203125 6.61244419642857  C 4.4734375 6.068359375  4.2 5.41183035714286  4.2 4.64285714285714  C 4.2 3.87388392857143  4.4734375 3.21735491071429  5.0203125 2.67327008928571  C 5.5671875 2.12918526785714  6.22708333333333 1.85714285714286  7 1.85714285714286  C 7.77291666666667 1.85714285714286  8.4328125 2.12918526785714  8.9796875 2.67327008928571  Z M 13.0958333333333 3.71428571428571  C 13.6986111111111 3.71428571428571  14 4.56789434523809  14 6.27511160714286  C 14 6.65234375  13.8638888888889 6.93889508928571  13.5916666666667 7.134765625  C 13.3194444444444 7.33063616071429  12.9840277777778 7.42857142857143  12.5854166666667 7.42857142857143  L 11.6083333333333 7.42857142857143  C 11.1076388888889 6.83370535714286  10.4635416666667 6.52418154761905  9.67604166666667 6.5  C 10.0697916666667 5.93415178571429  10.2666666666667 5.31510416666667  10.2666666666667 4.64285714285714  C 10.2666666666667 4.50260416666667  10.2545138888889 4.34300595238095  10.2302083333333 4.1640625  C 10.5510416666667 4.27529761904762  10.8743055555556 4.33091517857143  11.2 4.33091517857143  C 11.4868055555556 4.33091517857143  11.7760416666667 4.27892485119048  12.0677083333333 4.17494419642857  C 12.359375 4.07096354166667  12.5963541666667 3.96819196428571  12.7786458333333 3.86662946428571  C 12.9609375 3.76506696428571  13.0666666666667 3.71428571428571  13.0958333333333 3.71428571428571  Z M 12.5197916666667 0.544084821428572  C 12.884375 0.906808035714286  13.0666666666667 1.34449404761905  13.0666666666667 1.85714285714286  C 13.0666666666667 2.36979166666667  12.884375 2.80747767857143  12.5197916666667 3.17020089285714  C 12.1552083333333 3.53292410714286  11.7152777777778 3.71428571428571  11.2 3.71428571428571  C 10.6847222222222 3.71428571428571  10.2447916666667 3.53292410714286  9.88020833333333 3.17020089285714  C 9.515625 2.80747767857143  9.33333333333333 2.36979166666667  9.33333333333333 1.85714285714286  C 9.33333333333333 1.34449404761905  9.515625 0.906808035714286  9.88020833333333 0.544084821428572  C 10.2447916666667 0.181361607142858  10.6847222222222 0  11.2 0  C 11.7152777777778 0  12.1552083333333 0.181361607142858  12.5197916666667 0.544084821428572  Z " fill-rule="nonzero" fill="#29a1e0" stroke="none" transform="matrix(1 0 0 1 37 325 )" />
  </g>
</svg>