<?xml version="1.0" encoding="utf-8"?>
<svg version="1.1" xmlns:xlink="http://www.w3.org/1999/xlink" width="12px" height="12px" viewBox="14 9.5  12 12" xmlns="http://www.w3.org/2000/svg">
  <path d="M 20 9.5  C 23.36 9.5  26 12.14  26 15.5  C 26 18.86  23.36 21.5  20 21.5  C 16.64 21.5  14 18.86  14 15.5  C 14 12.14  16.64 9.5  20 9.5  Z " fill-rule="nonzero" fill="#f0f0f0" stroke="none" />
  <path d="M 20 10  C 23.08 10  25.5 12.42  25.5 15.5  C 25.5 18.58  23.08 21  20 21  C 16.92 21  14.5 18.58  14.5 15.5  C 14.5 12.42  16.92 10  20 10  Z " stroke-width="1" stroke="#797979" fill="none" />
  <path d="M 20 18.5  C 18.32 18.5  17 17.18  17 15.5  C 17 13.82  18.32 12.5  20 12.5  C 21.68 12.5  23 13.82  23 15.5  C 23 17.18  21.68 18.5  20 18.5  " fill-rule="nonzero" fill="#797979" stroke="none" />
</svg>