<?xml version="1.0" encoding="utf-8"?>
<svg version="1.1" xmlns:xlink="http://www.w3.org/1999/xlink" width="21px" height="17px" xmlns="http://www.w3.org/2000/svg">
  <g transform="matrix(1 0 0 1 -1530 -17 )">
    <path d="M 19.828125 6.53196022727273  C 20.2734375 6.21803977272727  20.6640625 5.86789772727273  21 5.48153409090909  L 21 15.0681818181818  C 21 15.5994318181818  20.81640625 16.0542140151515  20.44921875 16.4325284090909  C 20.08203125 16.8108428030303  19.640625 17  19.125 17  L 1.875 17  C 1.359375 17  0.91796875 16.8108428030303  0.55078125 16.4325284090909  C 0.18359375 16.0542140151515  0 15.5994318181818  0 15.0681818181818  L 0 5.48153409090909  C 0.34375 5.87594696969697  0.73828125 6.22608901515151  1.18359375 6.53196022727273  C 4.01171875 8.51207386363636  5.953125 9.90056818181818  7.0078125 10.6974431818182  C 7.453125 11.0355113636364  7.814453125 11.2991240530303  8.091796875 11.48828125  C 8.369140625 11.6774384469697  8.73828125 11.8706202651515  9.19921875 12.0678267045455  C 9.66015625 12.2650331439394  10.08984375 12.3636363636364  10.48828125 12.3636363636364  L 10.5 12.3636363636364  L 10.51171875 12.3636363636364  C 10.91015625 12.3636363636364  11.33984375 12.2650331439394  11.80078125 12.0678267045455  C 12.26171875 11.8706202651515  12.630859375 11.6774384469697  12.908203125 11.48828125  C 13.185546875 11.2991240530303  13.546875 11.0355113636364  13.9921875 10.6974431818182  C 15.3203125 9.70738636363636  17.265625 8.31889204545455  19.828125 6.53196022727273  Z M 20.443359375 0.56747159090909  C 20.814453125 0.945785984848483  21 1.40056818181818  21 1.93181818181818  C 21 2.56770833333333  20.80859375 3.17542613636364  20.42578125 3.75497159090909  C 20.04296875 4.33451704545455  19.56640625 4.82954545454545  18.99609375 5.24005681818182  C 16.05859375 7.34090909090909  14.23046875 8.64891098484848  13.51171875 9.1640625  C 13.43359375 9.2204071969697  13.267578125 9.34315814393939  13.013671875 9.53231534090909  C 12.759765625 9.72147253787879  12.548828125 9.87440814393939  12.380859375 9.99112215909091  C 12.212890625 10.1078361742424  12.009765625 10.2386363636364  11.771484375 10.3835227272727  C 11.533203125 10.5284090909091  11.30859375 10.6370738636364  11.09765625 10.7095170454545  C 10.88671875 10.7819602272727  10.69140625 10.8181818181818  10.51171875 10.8181818181818  L 10.5 10.8181818181818  L 10.48828125 10.8181818181818  C 10.30859375 10.8181818181818  10.11328125 10.7819602272727  9.90234375 10.7095170454545  C 9.69140625 10.6370738636364  9.466796875 10.5284090909091  9.228515625 10.3835227272727  C 8.990234375 10.2386363636364  8.787109375 10.1078361742424  8.619140625 9.99112215909091  C 8.451171875 9.87440814393939  8.240234375 9.72147253787879  7.986328125 9.53231534090909  C 7.732421875 9.34315814393939  7.56640625 9.2204071969697  7.48828125 9.1640625  C 6.77734375 8.64891098484848  5.75390625 7.91441761363636  4.41796875 6.96058238636364  C 3.08203125 6.00674715909091  2.28125 5.43323863636363  2.015625 5.24005681818182  C 1.53125 4.90198863636363  1.07421875 4.43714488636364  0.64453125 3.84552556818182  C 0.21484375 3.25390625  0 2.70454545454545  0 2.19744318181818  C 0 1.56960227272727  0.162109375 1.04640151515151  0.486328125 0.62784090909091  C 0.810546875 0.209280303030301  1.2734375 0  1.875 0  L 19.125 0  C 19.6328125 0  20.072265625 0.189157196969695  20.443359375 0.56747159090909  Z " fill-rule="nonzero" fill="#e0f3f1" stroke="none" transform="matrix(1 0 0 1 1530 17 )" />
  </g>
</svg>