<?xml version="1.0" encoding="utf-8"?>
<svg version="1.1" xmlns:xlink="http://www.w3.org/1999/xlink" width="15px" height="12px" xmlns="http://www.w3.org/2000/svg">
  <g transform="matrix(1 0 0 1 -14 -89 )">
    <path d="M 12.8438661710037 6.85580670303975  C 12.8500619578686 6.86827747466874  12.8531598513011 6.88698363211224  12.8531598513011 6.91192517537023  L 12.8531598513011 11.4014029618083  C 12.8531598513011 11.5635229929852  12.7942998760843 11.7038191738114  12.6765799256506 11.8222915042868  C 12.5588599752169 11.9407638347623  12.4194547707559 12  12.2583643122677 12  L 8.68959107806691 12  L 8.68959107806691 8.40841777084957  L 6.31040892193309 8.40841777084957  L 6.31040892193309 12  L 2.74163568773234 12  C 2.58054522924411 12  2.44114002478315 11.9407638347623  2.32342007434944 11.8222915042868  C 2.20570012391574 11.7038191738114  2.14684014869888 11.5635229929852  2.14684014869888 11.4014029618083  L 2.14684014869888 6.91192517537023  C 2.14684014869888 6.90568978955573  2.14838909541512 6.89633671083398  2.15148698884758 6.88386593920499  C 2.15458488228005 6.87139516757599  2.15613382899628 6.86204208885425  2.15613382899628 6.85580670303975  L 7.5 2.42244738893219  L 12.8438661710037 6.85580670303975  Z M 14.9907063197026 6.04676539360873  C 14.9969021065675 6.13094310210444  14.9752168525403 6.20420888542479  14.9256505576208 6.26656274356976  L 14.3494423791822 6.95869056897896  C 14.2998760842627 7.01480904130943  14.2348203221809 7.04910366328917  14.1542750929368 7.06157443491816  L 14.1263940520446 7.06157443491816  C 14.0458488228005 7.06157443491816  13.9807930607187 7.03975058456742  13.9312267657993 6.99610288386594  L 7.5 1.59937646141855  L 1.06877323420074 6.99610288386594  C 0.994423791821561 7.04598597038192  0.920074349442379 7.06780982073266  0.845724907063197 7.06157443491816  C 0.765179677819083 7.04910366328917  0.700123915737299 7.01480904130943  0.650557620817844 6.95869056897896  L 0.0743494423791822 6.26656274356976  C 0.0247831474597274 6.20420888542479  0.00309789343246595 6.13094310210444  0.00929368029739777 6.04676539360873  C 0.0154894671623297 5.96258768511302  0.0495662949194548 5.89555728760717  0.111524163568773 5.84567420109119  L 6.79368029739777 0.243180046765394  C 6.99194547707559 0.0810600155884633  7.227385377943 0  7.5 0  C 7.772614622057 0  8.00805452292441 0.0810600155884633  8.20631970260223 0.243180046765394  L 10.4739776951673 2.15120810600156  L 10.4739776951673 0.327357755261106  C 10.4739776951673 0.240062353858144  10.5018587360595 0.168355416991426  10.5576208178439 0.112236944660951  C 10.6133828996283 0.0561184723304757  10.684634448575 0.0280592361652379  10.771375464684 0.0280592361652379  L 12.5557620817844 0.0280592361652379  C 12.6425030978934 0.0280592361652379  12.7137546468401 0.0561184723304757  12.7695167286245 0.112236944660951  C 12.8252788104089 0.168355416991426  12.8531598513011 0.240062353858144  12.8531598513011 0.327357755261106  L 12.8531598513011 4.14341387373344  L 14.8884758364312 5.84567420109119  C 14.9504337050805 5.89555728760717  14.9845105328377 5.96258768511302  14.9907063197026 6.04676539360873  Z " fill-rule="nonzero" fill="#84b0b0" stroke="none" fill-opacity="0.325490196078431" transform="matrix(1 0 0 1 14 89 )" />
  </g>
</svg>