<?xml version="1.0" encoding="utf-8"?>
<svg version="1.1" xmlns:xlink="http://www.w3.org/1999/xlink" width="15px" height="11px" xmlns="http://www.w3.org/2000/svg">
  <g transform="matrix(1 0 0 1 -14 -160 )">
    <path d="M 2.900390625 7.70703125  C 3.10965401785714 7.51171875  3.21428571428571 7.27604166666667  3.21428571428571 7  C 3.21428571428571 6.72395833333333  3.10965401785714 6.48828125  2.900390625 6.29296875  C 2.69112723214286 6.09765625  2.43861607142857 6  2.14285714285714 6  C 1.84709821428571 6  1.59458705357143 6.09765625  1.38532366071429 6.29296875  C 1.17606026785714 6.48828125  1.07142857142857 6.72395833333333  1.07142857142857 7  C 1.07142857142857 7.27604166666667  1.17606026785714 7.51171875  1.38532366071429 7.70703125  C 1.59458705357143 7.90234375  1.84709821428571 8  2.14285714285714 8  C 2.43861607142857 8  2.69112723214286 7.90234375  2.900390625 7.70703125  Z M 4.50753348214286 4.20703125  C 4.716796875 4.01171875  4.82142857142857 3.77604166666667  4.82142857142857 3.5  C 4.82142857142857 3.22395833333333  4.716796875 2.98828125  4.50753348214286 2.79296875  C 4.29827008928571 2.59765625  4.04575892857143 2.5  3.75 2.5  C 3.45424107142857 2.5  3.20172991071429 2.59765625  2.99246651785714 2.79296875  C 2.783203125 2.98828125  2.67857142857143 3.22395833333333  2.67857142857143 3.5  C 2.67857142857143 3.77604166666667  2.783203125 4.01171875  2.99246651785714 4.20703125  C 3.20172991071429 4.40234375  3.45424107142857 4.5  3.75 4.5  C 4.04575892857143 4.5  4.29827008928571 4.40234375  4.50753348214286 4.20703125  Z M 9.00669642857143 7.96875  C 8.88392857142857 7.671875  8.68303571428572 7.43489583333333  8.40401785714286 7.2578125  L 9.24944196428572 4.2734375  C 9.28292410714286 4.13802083333333  9.26199776785714 4.01171875  9.18666294642857 3.89453125  C 9.111328125 3.77734375  9.00390625 3.70052083333333  8.86439732142857 3.6640625  C 8.72488839285714 3.62760416666667  8.59095982142857 3.64453125  8.46261160714286 3.71484375  C 8.33426339285714 3.78515625  8.25055803571429 3.88802083333333  8.21149553571428 4.0234375  L 7.36607142857143 7.0078125  C 7.03125 7.03385416666667  6.73270089285714 7.14713541666667  6.47042410714286 7.34765625  C 6.20814732142857 7.54817708333333  6.03236607142857 7.8046875  5.94308035714286 8.1171875  C 5.83147321428571 8.51822916666667  5.88727678571429 8.8984375  6.11049107142857 9.2578125  C 6.33370535714286 9.6171875  6.66015625 9.84895833333333  7.08984375 9.953125  C 7.51953125 10.0572916666667  7.92689732142857 10.0052083333333  8.31194196428572 9.796875  C 8.69698660714286 9.58854166666667  8.9453125 9.28385416666667  9.05691964285714 8.8828125  C 9.14620535714286 8.5703125  9.12946428571429 8.265625  9.00669642857143 7.96875  Z M 13.6146763392857 7.70703125  C 13.8239397321429 7.51171875  13.9285714285714 7.27604166666667  13.9285714285714 7  C 13.9285714285714 6.72395833333333  13.8239397321429 6.48828125  13.6146763392857 6.29296875  C 13.4054129464286 6.09765625  13.1529017857143 6  12.8571428571429 6  C 12.5613839285714 6  12.3088727678571 6.09765625  12.099609375 6.29296875  C 11.8903459821429 6.48828125  11.7857142857143 6.72395833333333  11.7857142857143 7  C 11.7857142857143 7.27604166666667  11.8903459821429 7.51171875  12.099609375 7.70703125  C 12.3088727678571 7.90234375  12.5613839285714 8  12.8571428571429 8  C 13.1529017857143 8  13.4054129464286 7.90234375  13.6146763392857 7.70703125  Z M 8.25753348214286 2.70703125  C 8.466796875 2.51171875  8.57142857142857 2.27604166666667  8.57142857142857 2  C 8.57142857142857 1.72395833333333  8.466796875 1.48828125  8.25753348214286 1.29296875  C 8.04827008928572 1.09765625  7.79575892857143 1  7.5 1  C 7.20424107142857 1  6.95172991071429 1.09765625  6.74246651785714 1.29296875  C 6.533203125 1.48828125  6.42857142857143 1.72395833333333  6.42857142857143 2  C 6.42857142857143 2.27604166666667  6.533203125 2.51171875  6.74246651785714 2.70703125  C 6.95172991071429 2.90234375  7.20424107142857 3  7.5 3  C 7.79575892857143 3  8.04827008928572 2.90234375  8.25753348214286 2.70703125  Z M 12.0075334821429 4.20703125  C 12.216796875 4.01171875  12.3214285714286 3.77604166666667  12.3214285714286 3.5  C 12.3214285714286 3.22395833333333  12.216796875 2.98828125  12.0075334821429 2.79296875  C 11.7982700892857 2.59765625  11.5457589285714 2.5  11.25 2.5  C 10.9542410714286 2.5  10.7017299107143 2.59765625  10.4924665178571 2.79296875  C 10.283203125 2.98828125  10.1785714285714 3.22395833333333  10.1785714285714 3.5  C 10.1785714285714 3.77604166666667  10.283203125 4.01171875  10.4924665178571 4.20703125  C 10.7017299107143 4.40234375  10.9542410714286 4.5  11.25 4.5  C 11.5457589285714 4.5  11.7982700892857 4.40234375  12.0075334821429 4.20703125  Z M 14.4056919642857 4.28125  C 14.8018973214286 5.14583333333333  15 6.05208333333333  15 7  C 15 8.359375  14.6065848214286 9.6171875  13.8197544642857 10.7734375  C 13.7137276785714 10.9244791666667  13.5630580357143 11  13.3677455357143 11  L 1.63225446428571 11  C 1.43694196428571 11  1.28627232142857 10.9244791666667  1.18024553571429 10.7734375  C 0.393415178571429 9.62239583333333  0 8.36458333333333  0 7  C 0 6.05208333333333  0.198102678571429 5.14583333333333  0.594308035714286 4.28125  C 0.990513392857143 3.41666666666667  1.5234375 2.671875  2.19308035714286 2.046875  C 2.86272321428571 1.421875  3.66071428571429 0.924479166666666  4.58705357142857 0.5546875  C 5.51339285714286 0.184895833333332  6.484375 0  7.5 0  C 8.515625 0  9.48660714285714 0.184895833333332  10.4129464285714 0.5546875  C 11.3392857142857 0.924479166666666  12.1372767857143 1.421875  12.8069196428571 2.046875  C 13.4765625 2.671875  14.0094866071429 3.41666666666667  14.4056919642857 4.28125  Z " fill-rule="nonzero" fill="#84b0b0" stroke="none" fill-opacity="0.325490196078431" transform="matrix(1 0 0 1 14 160 )" />
  </g>
</svg>