<?xml version="1.0" encoding="utf-8"?>
<svg version="1.1" xmlns:xlink="http://www.w3.org/1999/xlink" width="15px" height="23px" xmlns="http://www.w3.org/2000/svg">
  <g transform="matrix(1 0 0 1 -14 -436 )">
    <path d="M 3.80859375 21.1432291666667  C 4.08203125 20.8637152777778  4.21875 20.5243055555556  4.21875 20.125  C 4.21875 19.7256944444444  4.08203125 19.3862847222222  3.80859375 19.1067708333333  C 3.53515625 18.8272569444444  3.203125 18.6875  2.8125 18.6875  C 2.421875 18.6875  2.08984375 18.8272569444444  1.81640625 19.1067708333333  C 1.54296875 19.3862847222222  1.40625 19.7256944444444  1.40625 20.125  C 1.40625 20.5243055555556  1.54296875 20.8637152777778  1.81640625 21.1432291666667  C 2.08984375 21.4227430555556  2.421875 21.5625  2.8125 21.5625  C 3.203125 21.5625  3.53515625 21.4227430555556  3.80859375 21.1432291666667  Z M 3.80859375 3.89322916666667  C 4.08203125 3.61371527777778  4.21875 3.27430555555555  4.21875 2.875  C 4.21875 2.47569444444444  4.08203125 2.13628472222222  3.80859375 1.85677083333333  C 3.53515625 1.57725694444444  3.203125 1.4375  2.8125 1.4375  C 2.421875 1.4375  2.08984375 1.57725694444444  1.81640625 1.85677083333333  C 1.54296875 2.13628472222222  1.40625 2.47569444444444  1.40625 2.875  C 1.40625 3.27430555555555  1.54296875 3.61371527777778  1.81640625 3.89322916666667  C 2.08984375 4.17274305555555  2.421875 4.3125  2.8125 4.3125  C 3.203125 4.3125  3.53515625 4.17274305555555  3.80859375 3.89322916666667  Z M 13.18359375 5.80989583333333  C 13.45703125 5.53038194444444  13.59375 5.19097222222222  13.59375 4.79166666666667  C 13.59375 4.39236111111111  13.45703125 4.05295138888889  13.18359375 3.7734375  C 12.91015625 3.49392361111111  12.578125 3.35416666666667  12.1875 3.35416666666667  C 11.796875 3.35416666666667  11.46484375 3.49392361111111  11.19140625 3.7734375  C 10.91796875 4.05295138888889  10.78125 4.39236111111111  10.78125 4.79166666666667  C 10.78125 5.19097222222222  10.91796875 5.53038194444444  11.19140625 5.80989583333333  C 11.46484375 6.08940972222222  11.796875 6.22916666666667  12.1875 6.22916666666667  C 12.578125 6.22916666666667  12.91015625 6.08940972222222  13.18359375 5.80989583333333  Z M 14.1796875 2.75520833333333  C 14.7265625 3.31423611111111  15 3.99305555555555  15 4.79166666666667  C 15 5.31076388888889  14.873046875 5.79242621527778  14.619140625 6.23665364583333  C 14.365234375 6.68088107638889  14.0234375 7.02777777777778  13.59375 7.27734375  C 13.57421875 10.1423611111111  12.470703125 12.2087673611111  10.283203125 13.4765625  C 9.62890625 13.8559027777778  8.6376953125 14.2601996527778  7.3095703125 14.689453125  C 6.0595703125 15.0887586805556  5.23193359375 15.4431423611111  4.82666015625 15.7526041666667  C 4.42138671875 16.0620659722222  4.21875 16.5611979166667  4.21875 17.25  L 4.21875 17.6393229166667  C 4.6484375 17.8888888888889  4.990234375 18.2357855902778  5.244140625 18.6800130208333  C 5.498046875 19.1242404513889  5.625 19.6059027777778  5.625 20.125  C 5.625 20.9236111111111  5.3515625 21.6024305555556  4.8046875 22.1614583333333  C 4.2578125 22.7204861111111  3.59375 23  2.8125 23  C 2.03125 23  1.3671875 22.7204861111111  0.8203125 22.1614583333333  C 0.2734375 21.6024305555556  0 20.9236111111111  0 20.125  C 0 19.6059027777778  0.126953125 19.1242404513889  0.380859375 18.6800130208333  C 0.634765625 18.2357855902778  0.9765625 17.8888888888889  1.40625 17.6393229166667  L 1.40625 5.36067708333333  C 0.9765625 5.11111111111111  0.634765625 4.76421440972222  0.380859375 4.31998697916667  C 0.126953125 3.87575954861111  0 3.39409722222222  0 2.875  C 0 2.07638888888889  0.2734375 1.39756944444444  0.8203125 0.838541666666668  C 1.3671875 0.279513888888887  2.03125 0  2.8125 0  C 3.59375 0  4.2578125 0.279513888888887  4.8046875 0.838541666666668  C 5.3515625 1.39756944444444  5.625 2.07638888888889  5.625 2.875  C 5.625 3.39409722222222  5.498046875 3.87575954861111  5.244140625 4.31998697916667  C 4.990234375 4.76421440972222  4.6484375 5.11111111111111  4.21875 5.36067708333333  L 4.21875 12.802734375  C 4.74609375 12.5431857638889  5.498046875 12.2586805555556  6.474609375 11.94921875  C 7.01171875 11.7795138888889  7.43896484375 11.6322699652778  7.75634765625 11.5074869791667  C 8.07373046875 11.3827039930556  8.41796875 11.2279730902778  8.7890625 11.0432942708333  C 9.16015625 10.8586154513889  9.4482421875 10.6614583333333  9.6533203125 10.4518229166667  C 9.8583984375 10.2421875  10.05615234375 9.98763020833333  10.24658203125 9.68815104166667  C 10.43701171875 9.388671875  10.57373046875 9.04177517361111  10.65673828125 8.6474609375  C 10.73974609375 8.25314670138889  10.78125 7.79644097222222  10.78125 7.27734375  C 10.3515625 7.02777777777778  10.009765625 6.68088107638889  9.755859375 6.23665364583333  C 9.501953125 5.79242621527778  9.375 5.31076388888889  9.375 4.79166666666667  C 9.375 3.99305555555555  9.6484375 3.31423611111111  10.1953125 2.75520833333333  C 10.7421875 2.19618055555555  11.40625 1.91666666666667  12.1875 1.91666666666667  C 12.96875 1.91666666666667  13.6328125 2.19618055555555  14.1796875 2.75520833333333  Z " fill-rule="nonzero" fill="#84b0b0" stroke="none" fill-opacity="0.325490196078431" transform="matrix(1 0 0 1 14 436 )" />
  </g>
</svg>