<?xml version="1.0" encoding="utf-8"?>
<svg version="1.1" xmlns:xlink="http://www.w3.org/1999/xlink" width="15px" height="18px" xmlns="http://www.w3.org/2000/svg">
  <g transform="matrix(1 0 0 1 -14 -226 )">
    <path d="M 3.173828125 7.28236607142857  C 4.51497395833333 7.5703125  5.95703125 7.71428571428572  7.5 7.71428571428572  C 9.04296875 7.71428571428572  10.4850260416667 7.5703125  11.826171875 7.28236607142857  C 13.1673177083333 6.99441964285714  14.2252604166667 6.56919642857143  15 6.00669642857143  L 15 7.71428571428572  C 15 8.17633928571428  14.6647135416667 8.60491071428571  13.994140625 9  C 13.3235677083333 9.39508928571428  12.412109375 9.70814732142857  11.259765625 9.93917410714286  C 10.107421875 10.1702008928571  8.85416666666667 10.2857142857143  7.5 10.2857142857143  C 6.14583333333333 10.2857142857143  4.892578125 10.1702008928571  3.740234375 9.93917410714286  C 2.587890625 9.70814732142857  1.67643229166667 9.39508928571428  1.005859375 9  C 0.335286458333333 8.60491071428571  0 8.17633928571428  0 7.71428571428572  L 0 6.00669642857143  C 0.774739583333333 6.56919642857143  1.83268229166667 6.99441964285714  3.173828125 7.28236607142857  Z M 3.173828125 14.9966517857143  C 4.51497395833333 15.2845982142857  5.95703125 15.4285714285714  7.5 15.4285714285714  C 9.04296875 15.4285714285714  10.4850260416667 15.2845982142857  11.826171875 14.9966517857143  C 13.1673177083333 14.7087053571429  14.2252604166667 14.2834821428571  15 13.7209821428571  L 15 15.4285714285714  C 15 15.890625  14.6647135416667 16.3191964285714  13.994140625 16.7142857142857  C 13.3235677083333 17.109375  12.412109375 17.4224330357143  11.259765625 17.6534598214286  C 10.107421875 17.8844866071429  8.85416666666667 18  7.5 18  C 6.14583333333333 18  4.892578125 17.8844866071429  3.740234375 17.6534598214286  C 2.587890625 17.4224330357143  1.67643229166667 17.109375  1.005859375 16.7142857142857  C 0.335286458333333 16.3191964285714  0 15.890625  0 15.4285714285714  L 0 13.7209821428571  C 0.774739583333333 14.2834821428571  1.83268229166667 14.7087053571429  3.173828125 14.9966517857143  Z M 3.173828125 11.1395089285714  C 4.51497395833333 11.4274553571429  5.95703125 11.5714285714286  7.5 11.5714285714286  C 9.04296875 11.5714285714286  10.4850260416667 11.4274553571429  11.826171875 11.1395089285714  C 13.1673177083333 10.8515625  14.2252604166667 10.4263392857143  15 9.86383928571428  L 15 11.5714285714286  C 15 12.0334821428571  14.6647135416667 12.4620535714286  13.994140625 12.8571428571429  C 13.3235677083333 13.2522321428571  12.412109375 13.5652901785714  11.259765625 13.7963169642857  C 10.107421875 14.02734375  8.85416666666667 14.1428571428571  7.5 14.1428571428571  C 6.14583333333333 14.1428571428571  4.892578125 14.02734375  3.740234375 13.7963169642857  C 2.587890625 13.5652901785714  1.67643229166667 13.2522321428571  1.005859375 12.8571428571429  C 0.335286458333333 12.4620535714286  0 12.0334821428571  0 11.5714285714286  L 0 9.86383928571428  C 0.774739583333333 10.4263392857143  1.83268229166667 10.8515625  3.173828125 11.1395089285714  Z M 3.740234375 0.346540178571428  C 4.892578125 0.115513392857143  6.14583333333333 0  7.5 0  C 8.85416666666667 0  10.107421875 0.115513392857143  11.259765625 0.346540178571428  C 12.412109375 0.577566964285715  13.3235677083333 0.890624999999999  13.994140625 1.28571428571429  C 14.6647135416667 1.68080357142857  15 2.109375  15 2.57142857142857  L 15 3.85714285714286  C 15 4.31919642857143  14.6647135416667 4.74776785714285  13.994140625 5.14285714285714  C 13.3235677083333 5.53794642857143  12.412109375 5.85100446428572  11.259765625 6.08203125  C 10.107421875 6.31305803571428  8.85416666666667 6.42857142857143  7.5 6.42857142857143  C 6.14583333333333 6.42857142857143  4.892578125 6.31305803571428  3.740234375 6.08203125  C 2.587890625 5.85100446428572  1.67643229166667 5.53794642857143  1.005859375 5.14285714285714  C 0.335286458333333 4.74776785714285  0 4.31919642857143  0 3.85714285714286  L 0 2.57142857142857  C 0 2.109375  0.335286458333333 1.68080357142857  1.005859375 1.28571428571429  C 1.67643229166667 0.890624999999999  2.587890625 0.577566964285715  3.740234375 0.346540178571428  Z " fill-rule="nonzero" fill="#f2f2f2" stroke="none" fill-opacity="0.752941176470588" transform="matrix(1 0 0 1 14 226 )" />
  </g>
</svg>