<?xml version="1.0" encoding="utf-8"?>
<svg version="1.1" xmlns:xlink="http://www.w3.org/1999/xlink" width="15px" height="13px" xmlns="http://www.w3.org/2000/svg">
  <g transform="matrix(1 0 0 1 -14 -299 )">
    <path d="M 6.58052884615385 7.44176136363636  C 6.80889423076923 7.67566287878788  6.92307692307692 7.95265151515151  6.92307692307692 8.27272727272727  L 6.92307692307692 11.8181818181818  C 6.92307692307692 12.1382575757576  6.80889423076923 12.4152462121212  6.58052884615385 12.6491477272727  C 6.35216346153846 12.8830492424242  6.08173076923077 13  5.76923076923077 13  L 1.15384615384615 13  C 0.841346153846154 13  0.570913461538462 12.8830492424242  0.342548076923077 12.6491477272727  C 0.114182692307692 12.4152462121212  0 12.1382575757576  0 11.8181818181818  L 0 8.27272727272727  C 0 7.95265151515151  0.114182692307692 7.67566287878788  0.342548076923077 7.44176136363636  C 0.570913461538462 7.20785984848485  0.841346153846154 7.09090909090909  1.15384615384615 7.09090909090909  L 5.76923076923077 7.09090909090909  C 6.08173076923077 7.09090909090909  6.35216346153846 7.20785984848485  6.58052884615385 7.44176136363636  Z M 6.58052884615385 0.350852272727273  C 6.80889423076923 0.584753787878787  6.92307692307692 0.861742424242424  6.92307692307692 1.18181818181818  L 6.92307692307692 4.72727272727273  C 6.92307692307692 5.04734848484848  6.80889423076923 5.32433712121212  6.58052884615385 5.55823863636364  C 6.35216346153846 5.79214015151515  6.08173076923077 5.90909090909091  5.76923076923077 5.90909090909091  L 1.15384615384615 5.90909090909091  C 0.841346153846154 5.90909090909091  0.570913461538462 5.79214015151515  0.342548076923077 5.55823863636364  C 0.114182692307692 5.32433712121212  0 5.04734848484848  0 4.72727272727273  L 0 1.18181818181818  C 0 0.861742424242424  0.114182692307692 0.584753787878787  0.342548076923077 0.350852272727273  C 0.570913461538462 0.116950757575757  0.841346153846154 0  1.15384615384615 0  L 5.76923076923077 0  C 6.08173076923077 0  6.35216346153846 0.116950757575757  6.58052884615385 0.350852272727273  Z M 14.6574519230769 7.44176136363636  C 14.8858173076923 7.67566287878788  15 7.95265151515151  15 8.27272727272727  L 15 11.8181818181818  C 15 12.1382575757576  14.8858173076923 12.4152462121212  14.6574519230769 12.6491477272727  C 14.4290865384615 12.8830492424242  14.1586538461538 13  13.8461538461538 13  L 9.23076923076923 13  C 8.91826923076923 13  8.64783653846154 12.8830492424242  8.41947115384615 12.6491477272727  C 8.19110576923077 12.4152462121212  8.07692307692308 12.1382575757576  8.07692307692308 11.8181818181818  L 8.07692307692308 8.27272727272727  C 8.07692307692308 7.95265151515151  8.19110576923077 7.67566287878788  8.41947115384615 7.44176136363636  C 8.64783653846154 7.20785984848485  8.91826923076923 7.09090909090909  9.23076923076923 7.09090909090909  L 13.8461538461538 7.09090909090909  C 14.1586538461538 7.09090909090909  14.4290865384615 7.20785984848485  14.6574519230769 7.44176136363636  Z M 14.6574519230769 0.350852272727273  C 14.8858173076923 0.584753787878787  15 0.861742424242424  15 1.18181818181818  L 15 4.72727272727273  C 15 5.04734848484848  14.8858173076923 5.32433712121212  14.6574519230769 5.55823863636364  C 14.4290865384615 5.79214015151515  14.1586538461538 5.90909090909091  13.8461538461538 5.90909090909091  L 9.23076923076923 5.90909090909091  C 8.91826923076923 5.90909090909091  8.64783653846154 5.79214015151515  8.41947115384615 5.55823863636364  C 8.19110576923077 5.32433712121212  8.07692307692308 5.04734848484848  8.07692307692308 4.72727272727273  L 8.07692307692308 1.18181818181818  C 8.07692307692308 0.861742424242424  8.19110576923077 0.584753787878787  8.41947115384615 0.350852272727273  C 8.64783653846154 0.116950757575757  8.91826923076923 0  9.23076923076923 0  L 13.8461538461538 0  C 14.1586538461538 0  14.4290865384615 0.116950757575757  14.6574519230769 0.350852272727273  Z " fill-rule="nonzero" fill="#84b0b0" stroke="none" fill-opacity="0.325490196078431" transform="matrix(1 0 0 1 14 299 )" />
  </g>
</svg>