<?xml version="1.0" encoding="utf-8"?>
<svg version="1.1" xmlns:xlink="http://www.w3.org/1999/xlink" width="49px" height="49px" xmlns="http://www.w3.org/2000/svg">
  <defs>
    <filter x="901px" y="144px" width="49px" height="49px" filterUnits="userSpaceOnUse" id="filter29">
      <feOffset dx="1" dy="1" in="SourceAlpha" result="shadowOffsetInner" />
      <feGaussianBlur stdDeviation="2.5" in="shadowOffsetInner" result="shadowGaussian" />
      <feComposite in2="shadowGaussian" operator="atop" in="SourceAlpha" result="shadowComposite" />
      <feColorMatrix type="matrix" values="0 0 0 0 0  0 0 0 0 0  0 0 0 0 0  0 0 0 0.698039215686274 0  " in="shadowComposite" />
    </filter>
    <g id="widget30">
      <path d="M 924.5 148  C 935.42 148  944 156.58  944 167.5  C 944 178.42  935.42 187  924.5 187  C 913.58 187  905 178.42  905 167.5  C 905 156.58  913.58 148  924.5 148  Z " fill-rule="nonzero" fill="#009dd9" stroke="none" />
      <path d="M 924.5 148.5  C 935.14 148.5  943.5 156.86  943.5 167.5  C 943.5 178.14  935.14 186.5  924.5 186.5  C 913.86 186.5  905.5 178.14  905.5 167.5  C 905.5 156.86  913.86 148.5  924.5 148.5  Z " stroke-width="1" stroke="#ffffff" fill="none" />
    </g>
  </defs>
  <g transform="matrix(1 0 0 1 -901 -144 )">
    <use xlink:href="#widget30" filter="url(#filter29)" />
    <use xlink:href="#widget30" />
  </g>
</svg>