<?xml version="1.0" encoding="utf-8"?>
<svg version="1.1" xmlns:xlink="http://www.w3.org/1999/xlink" width="38px" height="38px" xmlns="http://www.w3.org/2000/svg">
  <defs>
    <filter x="353px" y="62px" width="38px" height="38px" filterUnits="userSpaceOnUse" id="filter5">
      <feOffset dx="0" dy="0" in="SourceAlpha" result="shadowOffsetInner" />
      <feGaussianBlur stdDeviation="5" in="shadowOffsetInner" result="shadowGaussian" />
      <feComposite in2="shadowGaussian" operator="atop" in="SourceAlpha" result="shadowComposite" />
      <feColorMatrix type="matrix" values="0 0 0 0 0  0 0 0 0 0  0 0 0 0 0  0 0 0 0.313725490196078 0  " in="shadowComposite" />
    </filter>
    <g id="widget6">
      <path d="M 17.6624996660154 16.087499507812  C 18.1124996308595 16.5374994902344  18.1124996308595 17.2124994550783  17.6624996484372 17.6624994550779  C 17.2124996660153 18.1124994374992  16.5374996835937 18.1124994374992  16.0874997011719 17.6624994550779  L 12.599999806641 14.174999560546  C 9.56249989453147 16.424999490235  5.40000003515621 16.3124994902346  2.58750012304699 13.7249995781247  C -0.56249977148417 10.7999996660155  -0.787499771484477 5.62499982421946  2.25000014062505 2.47499992968676  C 5.28750005273457 -0.674999964843892  10.3499998945313 -0.787499964843278  13.4999997890624 2.36249992968737  C 16.3124997011722 5.17499984179608  16.537499701172 9.56249970117165  14.1749997714841 12.5999996132812  L 17.6624996660154 16.087499507812  Z M 12.3749998066407 11.2499996484379  C 13.8374997714844 9.22499971875072  13.8374997714844 6.52499978906212  12.3749998066407 4.61249985937434  C 10.1249998769532 1.46249996484369  5.51250001757836 1.46249996484369  3.26250008789037 4.61249985937434  C 1.80000014062546 6.52499980664038  1.80000014062546 9.33749971875113  3.26250008789037 11.2499996484379  C 5.51250001757836 14.3999995429685  10.1249998769532 14.3999995429685  12.3749998066407 11.2499996484379  Z " fill-rule="nonzero" fill="#455a64" stroke="none" transform="matrix(1 0 0 1 363 72 )" />
    </g>
  </defs>
  <g transform="matrix(1 0 0 1 -353 -62 )">
    <use xlink:href="#widget6" filter="url(#filter5)" />
    <use xlink:href="#widget6" />
  </g>
</svg>