<?xml version="1.0" encoding="utf-8"?>
<svg version="1.1" xmlns:xlink="http://www.w3.org/1999/xlink" width="12px" height="12px" viewBox="555 240  12 12" xmlns="http://www.w3.org/2000/svg">
  <path d="M 561 240  C 564.36 240  567 242.64  567 246  C 567 249.36  564.36 252  561 252  C 557.64 252  555 249.36  555 246  C 555 242.64  557.64 240  561 240  Z " fill-rule="nonzero" fill="#ffffff" stroke="none" />
  <path d="M 561 240.5  C 564.08 240.5  566.5 242.92  566.5 246  C 566.5 249.08  564.08 251.5  561 251.5  C 557.92 251.5  555.5 249.08  555.5 246  C 555.5 242.92  557.92 240.5  561 240.5  Z " stroke-width="1" stroke="#797979" fill="none" />
  <path d="M 561 249  C 559.32 249  558 247.68  558 246  C 558 244.32  559.32 243  561 243  C 562.68 243  564 244.32  564 246  C 564 247.68  562.68 249  561 249  " fill-rule="nonzero" fill="#797979" stroke="none" />
</svg>