<?xml version="1.0" encoding="utf-8"?>
<svg version="1.1" xmlns:xlink="http://www.w3.org/1999/xlink" width="12px" height="12px" viewBox="687 240  12 12" xmlns="http://www.w3.org/2000/svg">
  <path d="M 693 240  C 696.36 240  699 242.64  699 246  C 699 249.36  696.36 252  693 252  C 689.64 252  687 249.36  687 246  C 687 242.64  689.64 240  693 240  Z " fill-rule="nonzero" fill="#f0f0f0" stroke="none" />
  <path d="M 693 240.5  C 696.08 240.5  698.5 242.92  698.5 246  C 698.5 249.08  696.08 251.5  693 251.5  C 689.92 251.5  687.5 249.08  687.5 246  C 687.5 242.92  689.92 240.5  693 240.5  Z " stroke-width="1" stroke="#797979" fill="none" />
  <path d="M 693 249  C 691.32 249  690 247.68  690 246  C 690 244.32  691.32 243  693 243  C 694.68 243  696 244.32  696 246  C 696 247.68  694.68 249  693 249  " fill-rule="nonzero" fill="#797979" stroke="none" />
</svg>