<?xml version="1.0" encoding="utf-8"?>
<svg version="1.1" xmlns:xlink="http://www.w3.org/1999/xlink" width="39px" height="40px" xmlns="http://www.w3.org/2000/svg">
  <defs>
    <filter x="1269px" y="193px" width="39px" height="40px" filterUnits="userSpaceOnUse" id="filter12">
      <feOffset dx="1" dy="1" in="SourceAlpha" result="shadowOffsetInner" />
      <feGaussianBlur stdDeviation="2.5" in="shadowOffsetInner" result="shadowGaussian" />
      <feComposite in2="shadowGaussian" operator="atop" in="SourceAlpha" result="shadowComposite" />
      <feColorMatrix type="matrix" values="0 0 0 0 0  0 0 0 0 0  0 0 0 0 0  0 0 0 0.698039215686274 0  " in="shadowComposite" />
    </filter>
    <g id="widget13">
      <path d="M 1287.5 197  C 1295.62 197  1302 203.6  1302 212  C 1302 220.4  1295.62 227  1287.5 227  C 1279.38 227  1273 220.4  1273 212  C 1273 203.6  1279.38 197  1287.5 197  Z " fill-rule="nonzero" fill="#009dd9" stroke="none" />
      <path d="M 1287.5 197.5  C 1295.34 197.5  1301.5 203.88  1301.5 212  C 1301.5 220.12  1295.34 226.5  1287.5 226.5  C 1279.66 226.5  1273.5 220.12  1273.5 212  C 1273.5 203.88  1279.66 197.5  1287.5 197.5  Z " stroke-width="1" stroke="#ffffff" fill="none" />
    </g>
  </defs>
  <g transform="matrix(1 0 0 1 -1269 -193 )">
    <use xlink:href="#widget13" filter="url(#filter12)" />
    <use xlink:href="#widget13" />
  </g>
</svg>