<?xml version="1.0" encoding="utf-8"?>
<svg version="1.1" xmlns:xlink="http://www.w3.org/1999/xlink" width="12px" height="12px" viewBox="914 279  12 12" xmlns="http://www.w3.org/2000/svg">
  <path d="M 920 279  C 923.36 279  926 281.64  926 285  C 926 288.36  923.36 291  920 291  C 916.64 291  914 288.36  914 285  C 914 281.64  916.64 279  920 279  Z " fill-rule="nonzero" fill="#ffffff" stroke="none" />
  <path d="M 920 279.5  C 923.08 279.5  925.5 281.92  925.5 285  C 925.5 288.08  923.08 290.5  920 290.5  C 916.92 290.5  914.5 288.08  914.5 285  C 914.5 281.92  916.92 279.5  920 279.5  Z " stroke-width="1" stroke="#797979" fill="none" />
  <path d="M 920 288  C 918.32 288  917 286.68  917 285  C 917 283.32  918.32 282  920 282  C 921.68 282  923 283.32  923 285  C 923 286.68  921.68 288  920 288  " fill-rule="nonzero" fill="#797979" stroke="none" />
</svg>