<?xml version="1.0" encoding="utf-8"?>
<svg version="1.1" xmlns:xlink="http://www.w3.org/1999/xlink" width="13px" height="13px" xmlns="http://www.w3.org/2000/svg">
  <g transform="matrix(1 0 0 1 -373 -111 )">
    <path d="M 9.4453125 11.4108380592312  L 8.8828125 7.96219281663515  L 11.2734375 5.52930056710776  L 7.9765625 5.02142407057341  L 6.5 1.89224952741021  L 5.0234375 5.02142407057341  L 1.7265625 5.52930056710776  L 4.1171875 7.96219281663515  L 3.546875 11.4108380592312  L 6.5 9.78071833648395  L 9.4453125 11.4108380592312  Z M 12.5625 4.66099558916193  C 12.8541666666667 4.71014492753624  13 4.83574879227051  13 5.03780718336485  C 13 5.15795001050201  12.9322916666667 5.28901491283344  12.796875 5.43100189035916  L 9.9609375 8.33081285444235  L 10.6328125 12.4265910522999  C 10.6380208333333 12.4648183154799  10.640625 12.5194286914514  10.640625 12.5904221802143  C 10.640625 12.8634740600714  10.5338541666667 13  10.3203125 13  C 10.2213541666667 13  10.1171875 12.9672337744171  10.0078125 12.9017013232514  L 7.38170133982139 11.45441265257  L 6.5 10.9684940138626  L 2.9921875 12.9017013232514  C 2.87760416666667 12.9672337744171  2.7734375 13  2.6796875 13  C 2.5703125 13  2.48828125 12.9604074774207  2.43359375 12.8812224322621  C 2.37890625 12.8020373871035  2.3515625 12.7051039697543  2.3515625 12.5904221802143  C 2.3515625 12.5576559546314  2.35677083333333 12.5030455786599  2.3671875 12.4265910522999  L 3.0390625 8.33081285444235  L 0.1953125 5.43100189035916  C 0.0651041666666666 5.28355387523629  0 5.15248897290485  0 5.03780718336485  C 0 4.83574879227051  0.145833333333334 4.71014492753624  0.437500000000001 4.66099558916193  L 4.359375 4.06301197227473  L 6.1171875 0.335853812224328  C 6.21614583333334 0.111951270741443  6.34375 0  6.5 0  C 6.65625 0  6.78385416666667 0.111951270741443  6.8828125 0.335853812224328  L 8.640625 4.06301197227473  L 12.5625 4.66099558916193  Z " fill-rule="nonzero" fill="#455a64" stroke="none" transform="matrix(1 0 0 1 373 111 )" />
  </g>
</svg>