<?xml version="1.0" encoding="utf-8"?>
<svg version="1.1" xmlns:xlink="http://www.w3.org/1999/xlink" width="11px" height="13px" xmlns="http://www.w3.org/2000/svg">
  <g transform="matrix(1 0 0 1 -353 -111 )">
    <path d="M 9.16666666666667 3.71428571428571  C 9.16666666666667 4.42522321428571  8.97808159722222 5.08296130952381  8.60091145833333 5.6875  C 8.82530381944445 5.75520833333333  9.03895399305556 5.84709821428571  9.24186197916667 5.96316964285714  C 9.44476996527778 6.07924107142857  9.6572265625 6.25576636904762  9.87923177083333 6.49274553571429  C 10.1012369791667 6.72972470238095  10.291015625 7.00902157738095  10.4485677083333 7.33063616071429  C 10.6061197916667 7.65225074404762  10.7374131944444 8.06817336309524  10.8424479166667 8.57840401785714  C 10.9474826388889 9.08863467261905  11 9.66052827380952  11 10.2940848214286  C 11 11.0388764880952  10.7612847222222 11.6760602678571  10.2838541666667 12.2056361607143  C 9.80642361111111 12.7352120535714  9.23111979166667 13  8.55794270833333 13  L 2.44205729166667 13  C 1.76888020833333 13  1.19357638888889 12.7352120535714  0.716145833333333 12.2056361607143  C 0.238715277777778 11.6760602678571  0 11.0388764880952  0 10.2940848214286  C 0 9.66052827380952  0.0525173611111111 9.08863467261905  0.157552083333333 8.57840401785714  C 0.262586805555556 8.06817336309524  0.393880208333333 7.65225074404762  0.551432291666667 7.33063616071429  C 0.708984375 7.00902157738095  0.898763020833333 6.72972470238095  1.12076822916667 6.49274553571429  C 1.3427734375 6.25576636904762  1.55523003472222 6.07924107142857  1.75813802083333 5.96316964285714  C 1.96104600694444 5.84709821428571  2.17469618055556 5.75520833333333  2.39908854166667 5.6875  C 2.02191840277778 5.08296130952381  1.83333333333333 4.42522321428571  1.83333333333333 3.71428571428571  C 1.83333333333333 3.21130952380952  1.93001302083333 2.73130580357143  2.12337239583333 2.27427455357143  C 2.31673177083333 1.81724330357143  2.578125 1.421875  2.90755208333333 1.08816964285714  C 3.23697916666667 0.754464285714286  3.62727864583333 0.489676339285714  4.07845052083333 0.293805803571428  C 4.52962239583333 0.0979352678571422  5.00347222222222 0  5.5 0  C 5.99652777777778 0  6.47037760416667 0.0979352678571422  6.92154947916667 0.293805803571428  C 7.37272135416667 0.489676339285714  7.76302083333333 0.754464285714286  8.09244791666667 1.08816964285714  C 8.421875 1.421875  8.68326822916667 1.81724330357143  8.87662760416667 2.27427455357143  C 9.06998697916667 2.73130580357143  9.16666666666667 3.21130952380952  9.16666666666667 3.71428571428571  Z M 7.4443359375 1.74469866071429  C 6.9072265625 1.20061383928571  6.25911458333333 0.928571428571428  5.5 0.928571428571428  C 4.74088541666667 0.928571428571428  4.0927734375 1.20061383928571  3.5556640625 1.74469866071429  C 3.0185546875 2.28878348214286  2.75 2.9453125  2.75 3.71428571428571  C 2.75 4.48325892857143  3.0185546875 5.13978794642857  3.5556640625 5.68387276785714  C 4.0927734375 6.22795758928571  4.74088541666667 6.5  5.5 6.5  C 6.25911458333333 6.5  6.9072265625 6.22795758928571  7.4443359375 5.68387276785714  C 7.9814453125 5.13978794642857  8.25 4.48325892857143  8.25 3.71428571428571  C 8.25 2.9453125  7.9814453125 2.28878348214286  7.4443359375 1.74469866071429  Z M 2.44205729166667 12.0714285714286  L 8.55794270833333 12.0714285714286  C 8.97808159722222 12.0714285714286  9.33734809027778 11.8985305059524  9.6357421875 11.552734375  C 9.93413628472222 11.2069382440476  10.0833333333333 10.7873883928571  10.0833333333333 10.2940848214286  C 10.0833333333333 9.13820684523809  9.89594184027778 8.2265625  9.52115885416667 7.55915178571429  C 9.14637586805556 6.89174107142857  8.60807291666667 6.54110863095238  7.90625 6.50725446428571  C 7.21397569444444 7.12146577380952  6.41189236111111 7.42857142857143  5.5 7.42857142857143  C 4.58810763888889 7.42857142857143  3.78602430555556 7.12146577380952  3.09375 6.50725446428571  C 2.39192708333333 6.54110863095238  1.85362413194444 6.89174107142857  1.47884114583333 7.55915178571429  C 1.10405815972222 8.2265625  0.916666666666667 9.13820684523809  0.916666666666667 10.2940848214286  C 0.916666666666667 10.7873883928571  1.06586371527778 11.2069382440476  1.3642578125 11.552734375  C 1.66265190972222 11.8985305059524  2.02191840277778 12.0714285714286  2.44205729166667 12.0714285714286  Z " fill-rule="nonzero" fill="#000000" stroke="none" transform="matrix(1 0 0 1 353 111 )" />
  </g>
</svg>