<?xml version="1.0" encoding="utf-8"?>
<svg version="1.1" xmlns:xlink="http://www.w3.org/1999/xlink" width="420px" height="849px" xmlns="http://www.w3.org/2000/svg">
  <g>
    <path d="M 4 789.006  L 4 316  C 1.76000000000001 316  0 314.850612244898  0 313.387755102041  L 0 254.612244897959  C 0 253.149387755102  1.76000000000001 252  4 251.989457932743  L 4 238  C 1.76000000000001 238  0 236.850612244898  0 235.387755102041  L 0 176.612244897959  C 0 175.149387755102  1.76000000000001 174  4 174.002619933322  L 4 147  C 1.76000000000001 147  0 146.425306122449  0 145.69387755102  L 0 116.30612244898  C 0 115.574693877551  1.76000000000001 115  4 114.998885254475  L 4 59.994  C 4 26.39736  30.39736 0  63.994 0  L 356.006 0  C 389.60264 0  416 26.39736  416 59.994  L 416 196  L 418 196  C 419.12 196  420 196.88  420 198  L 420 292  C 420 293.12  419.12 294  418 294  L 416 293.999822181413  L 416 789.006  C 416 822.60264  389.60264 849  356.006 849  L 63.994 849  C 30.39736 849  4 822.60264  4 789.006  Z " fill-rule="nonzero" fill="#282828" stroke="none" />
  </g>
</svg>