<?xml version="1.0" encoding="utf-8"?>
<svg version="1.1" xmlns:xlink="http://www.w3.org/1999/xlink" width="18px" height="11px" xmlns="http://www.w3.org/2000/svg">
  <g transform="matrix(1 0 0 1 -315 -35 )">
    <path d="M 1.03286384976525 11  C 0.462428896888412 11  0 10.5404612837172  0 9.97359154929577  C 0 9.97359154929577  0 7.92077464788732  0 7.92077464788732  C 0 7.35390491346593  0.462428896888412 6.8943661971831  1.03286384976531 6.8943661971831  C 1.03286384976531 6.8943661971831  2.06572769953056 6.8943661971831  2.06572769953056 6.8943661971831  C 2.63616265240739 6.8943661971831  3.0985915492958 7.35390491346593  3.0985915492958 7.92077464788732  C 3.0985915492958 7.92077464788732  3.0985915492958 9.97359154929577  3.0985915492958 9.97359154929577  C 3.0985915492958 10.5404612837172  2.63616265240739 11  2.0657276995305 11  C 2.0657276995305 11  1.03286384976525 11  1.03286384976525 11  Z M 6.86854460093895 11  C 6.86854460093895 11  5.8356807511737 11  5.8356807511737 11  C 5.2652457982968 11  4.80281690140845 10.5375711031116  4.80281690140845 9.96713615023474  C 4.80281690140845 9.96713615023474  4.80281690140845 5.83568075117371  4.80281690140845 5.83568075117371  C 4.80281690140845 5.26524579829683  5.2652457982968 4.80281690140845  5.8356807511737 4.80281690140845  C 5.8356807511737 4.80281690140845  6.86854460093895 4.80281690140845  6.86854460093895 4.80281690140845  C 7.43897955381584 4.80281690140845  7.90140845070425 5.26524579829683  7.90140845070425 5.83568075117371  C 7.90140845070425 5.83568075117371  7.90140845070425 9.96713615023474  7.90140845070425 9.96713615023474  C 7.90140845070425 10.5375711031116  7.43897955381584 11  6.86854460093895 11  Z M 10.6384976525822 11  C 10.0680626997053 11  9.6056338028169 10.5380335320085  9.6056338028169 9.96816901408451  C 9.6056338028169 9.96816901408451  9.6056338028169 3.43323943661972  9.6056338028169 3.43323943661972  C 9.6056338028169 2.86337491869572  10.0680626997053 2.40140845070423  10.6384976525822 2.40140845070423  C 10.6384976525822 2.40140845070423  11.6713615023475 2.40140845070423  11.6713615023475 2.40140845070423  C 12.2417964552243 2.40140845070423  12.7042253521127 2.86337491869572  12.7042253521127 3.43323943661972  C 12.7042253521127 3.43323943661972  12.7042253521127 9.96816901408451  12.7042253521127 9.96816901408451  C 12.7042253521127 10.5380335320085  12.2417964552243 11  11.6713615023475 11  C 11.6713615023475 11  10.6384976525822 11  10.6384976525822 11  Z M 14.4084507042253 1.03125  C 14.4084507042253 0.461706351736996  14.8708796011138 0  15.4413145539907 0  C 15.4413145539907 0  16.474178403756 0  16.474178403756 0  C 17.0446133566327 0  17.5070422535211 0.461706351736996  17.5070422535211 1.03125  C 17.5070422535211 1.03125  17.5070422535211 9.96875  17.5070422535211 9.96875  C 17.5070422535211 10.538293648263  17.0446133566327 11  16.4741784037559 11  C 16.4741784037559 11  15.4413145539907 11  15.4413145539907 11  C 14.8708796011138 11  14.4084507042253 10.538293648263  14.4084507042253 9.96875  C 14.4084507042253 9.96875  14.4084507042253 1.03125  14.4084507042253 1.03125  Z " fill-rule="nonzero" fill="#000000" stroke="none" transform="matrix(1 0 0 1 315 35 )" />
  </g>
</svg>