<?xml version="1.0" encoding="utf-8"?>
<svg version="1.1" xmlns:xlink="http://www.w3.org/1999/xlink" width="35px" height="33px" xmlns="http://www.w3.org/2000/svg">
  <g transform="matrix(1 0 0 1 -340 -256 )">
    <path d="M 19.80929844098 27.7346754807692  C 19.932720861173 27.6090745192308  19.9944320712695 27.4537259615385  19.9944320712695 27.2686298076923  L 19.9944320712695 23.5006009615385  C 19.9944320712695 23.3155048076923  19.932720861173 23.16015625  19.80929844098 23.0345552884615  C 19.6858760207869 22.9089543269231  19.539717891611 22.8461538461538  19.3708240534521 22.8461538461538  L 15.6291759465479 22.8461538461538  C 15.460282108389 22.8461538461538  15.3141239792131 22.9089543269231  15.19070155902 23.0345552884615  C 15.067279138827 23.16015625  15.0055679287305 23.3155048076923  15.0055679287305 23.5006009615385  L 15.0055679287305 27.2686298076923  C 15.0055679287305 27.4537259615385  15.067279138827 27.6090745192308  15.19070155902 27.7346754807692  C 15.3141239792131 27.8602764423077  15.460282108389 27.9230769230769  15.6291759465479 27.9230769230769  L 19.3708240534521 27.9230769230769  C 19.539717891611 27.9230769230769  19.6858760207869 27.8602764423077  19.80929844098 27.7346754807692  Z M 19.7508351893096 20.1787860576923  C 19.8742576095026 20.0928485576923  19.9424647364514 19.9837740384615  19.9554565701559 19.8515625  L 20.3062360801782 10.7487980769231  C 20.3062360801782 10.5901442307692  20.2412769116555 10.4645432692308  20.1113585746102 10.3719951923077  C 19.9424647364514 10.2265625  19.786562731997 10.1538461538462  19.6436525612472 10.1538461538462  L 15.3563474387528 10.1538461538462  C 15.213437268003 10.1538461538462  15.0575352635486 10.2265625  14.8886414253898 10.3719951923077  C 14.7587230883445 10.4645432692308  14.6937639198218 10.6033653846154  14.6937639198218 10.7884615384615  L 15.0250556792873 19.8515625  C 15.0250556792873 19.9837740384615  15.09001484781 20.0928485576923  15.2199331848552 20.1787860576923  C 15.3498515219005 20.2647235576923  15.5057535263549 20.3076923076923  15.6876391982183 20.3076923076923  L 19.2928730512249 20.3076923076923  C 19.4747587230883 20.3076923076923  19.6274127691166 20.2647235576923  19.7508351893096 20.1787860576923  Z M 18.7667037861915 0.356971153846154  C 19.1564587973274 0.594951923076923  19.4617668893838 0.91887019230769  19.6826280623608 1.32872596153846  L 34.6492204899777 29.2518028846154  C 35.1039346696362 30.0847355769231  35.0909428359317 30.9176682692308  34.6102449888641 31.7506009615385  C 34.3893838158872 32.1340144230769  34.0873236822569 32.4381009615385  33.7040645879733 32.6628605769231  C 33.3208054936897 32.8876201923077  32.9083147735709 33  32.4665924276169 33  L 2.53340757238307 33  C 2.0916852264291 33  1.67919450631032 32.8876201923077  1.29593541202673 32.6628605769231  C 0.912676317743133 32.4381009615385  0.610616184112843 32.1340144230769  0.389755011135857 31.7506009615385  C -0.0909428359317001 30.9176682692308  -0.103934669636229 30.0847355769231  0.350779510022272 29.2518028846154  L 15.3173719376392 1.32872596153846  C 15.5382331106162 0.91887019230769  15.8435412026726 0.594951923076923  16.2332962138085 0.356971153846154  C 16.6230512249443 0.118990384615386  17.0452858203415 0  17.5 0  C 17.9547141796585 0  18.3769487750557 0.118990384615386  18.7667037861915 0.356971153846154  Z " fill-rule="nonzero" fill="#a30014" stroke="none" fill-opacity="0.0823529411764706" transform="matrix(1 0 0 1 340 256 )" />
  </g>
</svg>