<?xml version="1.0" encoding="utf-8"?>
<svg version="1.1" xmlns:xlink="http://www.w3.org/1999/xlink" width="34px" height="34px" xmlns="http://www.w3.org/2000/svg">
  <g transform="matrix(1 0 0 1 -340 -165 )">
    <path d="M 9.15384615384615 25.5  C 9.15384615384615 25.6770833333333  9.09254807692308 25.833733974359  8.96995192307692 25.9699519230769  L 3.73918269230769 31.2007211538462  C 3.58934294871795 31.3233173076923  3.43269230769231 31.3846153846154  3.26923076923077 31.3846153846154  C 3.10576923076923 31.3846153846154  2.94911858974359 31.3233173076923  2.79927884615385 31.2007211538462  C 2.67668269230769 31.0645032051282  2.61538461538462 30.9078525641026  2.61538461538462 30.7307692307692  C 2.61538461538462 30.5536858974359  2.67668269230769 30.3970352564103  2.79927884615385 30.2608173076923  L 8.03004807692308 25.0300480769231  C 8.16626602564103 24.9074519230769  8.32291666666667 24.8461538461538  8.5 24.8461538461538  C 8.67708333333333 24.8461538461538  8.83373397435898 24.9074519230769  8.96995192307692 25.0300480769231  C 9.09254807692308 25.166266025641  9.15384615384615 25.3229166666667  9.15384615384615 25.5  Z M 12.2391826923077 26.3377403846154  C 12.3617788461538 26.4603365384615  12.4230769230769 26.6169871794872  12.4230769230769 26.8076923076923  L 12.4230769230769 33.3461538461538  C 12.4230769230769 33.536858974359  12.3617788461538 33.6935096153846  12.2391826923077 33.8161057692308  C 12.1165865384615 33.9387019230769  11.9599358974359 34  11.7692307692308 34  C 11.5785256410256 34  11.421875 33.9387019230769  11.2992788461538 33.8161057692308  C 11.1766826923077 33.6935096153846  11.1153846153846 33.536858974359  11.1153846153846 33.3461538461538  L 11.1153846153846 26.8076923076923  C 11.1153846153846 26.6169871794872  11.1766826923077 26.4603365384615  11.2992788461538 26.3377403846154  C 11.421875 26.2151442307692  11.5785256410256 26.1538461538462  11.7692307692308 26.1538461538462  C 11.9599358974359 26.1538461538462  12.1165865384615 26.2151442307692  12.2391826923077 26.3377403846154  Z M 7.66225961538462 21.7608173076923  C 7.78485576923077 21.8834134615385  7.84615384615385 22.0400641025641  7.84615384615385 22.2307692307692  C 7.84615384615385 22.4214743589744  7.78485576923077 22.578125  7.66225961538462 22.7007211538462  C 7.53966346153846 22.8233173076923  7.38301282051282 22.8846153846154  7.19230769230769 22.8846153846154  L 0.653846153846154 22.8846153846154  C 0.463141025641026 22.8846153846154  0.306490384615385 22.8233173076923  0.183894230769231 22.7007211538462  C 0.0612980769230769 22.578125  0 22.4214743589744  0 22.2307692307692  C 0 22.0400641025641  0.0612980769230769 21.8834134615385  0.183894230769231 21.7608173076923  C 0.306490384615385 21.6382211538462  0.463141025641026 21.5769230769231  0.653846153846154 21.5769230769231  L 7.19230769230769 21.5769230769231  C 7.38301282051282 21.5769230769231  7.53966346153846 21.6382211538462  7.66225961538462 21.7608173076923  Z M 31.9567307692308 20.6778846153846  C 33.1009615384615 21.849358974359  33.6730769230769 23.238782051282  33.6730769230769 24.8461538461538  C 33.6730769230769 26.4807692307692  33.0941506410256 27.8633814102564  31.9362980769231 28.9939903846154  L 28.9326923076923 31.9771634615385  C 27.8020833333333 33.1077724358974  26.4194711538462 33.6730769230769  24.7848557692308 33.6730769230769  C 23.1366185897436 33.6730769230769  21.7471955128205 33.0941506410256  20.6165865384615 31.9362980769231  L 13.7920673076923 25.0913461538462  C 13.5060096153846 24.8052884615385  13.2199519230769 24.4238782051282  12.9338942307692 23.9471153846154  L 17.8173076923077 23.5793269230769  L 23.3954326923077 29.1778846153846  C 23.7632211538462 29.5456730769231  24.2263621794872 29.7329727564103  24.7848557692308 29.7397836538462  C 25.3433493589744 29.746594551282  25.8064903846154 29.5661057692308  26.1742788461538 29.1983173076923  L 29.1778846153846 26.2151442307692  C 29.5592948717949 25.833733974359  29.75 25.3774038461538  29.75 24.8461538461538  C 29.75 24.301282051282  29.5592948717949 23.838141025641  29.1778846153846 23.4567307692308  L 23.5793269230769 17.8377403846154  L 23.9471153846154 12.9543269230769  C 24.4238782051282 13.2403846153846  24.8052884615385 13.5264423076923  25.0913461538462 13.8125  L 31.9567307692308 20.6778846153846  Z M 20.2079326923077 8.90865384615384  C 20.4939903846154 9.19471153846154  20.7800480769231 9.57612179487179  21.0661057692308 10.0528846153846  L 16.1826923076923 10.4206730769231  L 10.6045673076923 4.82211538461539  C 10.2231570512821 4.44070512820513  9.76001602564103 4.25  9.21514423076923 4.25  C 8.68389423076923 4.25  8.22075320512821 4.43389423076923  7.82572115384615 4.80168269230769  L 4.82211538461538 7.78485576923077  C 4.44070512820513 8.16626602564102  4.25 8.62259615384616  4.25 9.15384615384616  C 4.25 9.69871794871795  4.44070512820513 10.161858974359  4.82211538461538 10.5432692307692  L 10.4206730769231 16.1418269230769  L 10.0528846153846 21.0456730769231  C 9.5761217948718 20.7596153846154  9.19471153846154 20.4735576923077  8.90865384615385 20.1875  L 2.04326923076923 13.3221153846154  C 0.899038461538462 12.150641025641  0.326923076923077 10.7612179487179  0.326923076923077 9.15384615384616  C 0.326923076923077 7.51923076923077  0.905849358974359 6.13661858974359  2.06370192307692 5.00600961538461  L 5.06730769230769 2.02283653846154  C 6.19791666666667 0.892227564102562  7.58052884615385 0.326923076923076  9.21514423076923 0.326923076923076  C 10.8633814102564 0.326923076923076  12.2528044871795 0.905849358974359  13.3834134615385 2.06370192307692  L 20.2079326923077 8.90865384615384  Z M 33.8161057692308 11.2992788461538  C 33.9387019230769 11.421875  34 11.5785256410256  34 11.7692307692308  C 34 11.9599358974359  33.9387019230769 12.1165865384615  33.8161057692308 12.2391826923077  C 33.6935096153846 12.3617788461538  33.536858974359 12.4230769230769  33.3461538461538 12.4230769230769  L 26.8076923076923 12.4230769230769  C 26.6169871794872 12.4230769230769  26.4603365384615 12.3617788461538  26.3377403846154 12.2391826923077  C 26.2151442307692 12.1165865384615  26.1538461538462 11.9599358974359  26.1538461538462 11.7692307692308  C 26.1538461538462 11.5785256410256  26.2151442307692 11.421875  26.3377403846154 11.2992788461538  C 26.4603365384615 11.1766826923077  26.6169871794872 11.1153846153846  26.8076923076923 11.1153846153846  L 33.3461538461538 11.1153846153846  C 33.536858974359 11.1153846153846  33.6935096153846 11.1766826923077  33.8161057692308 11.2992788461538  Z M 22.7007211538462 0.183894230769231  C 22.8233173076923 0.306490384615386  22.8846153846154 0.463141025641024  22.8846153846154 0.653846153846155  L 22.8846153846154 7.19230769230769  C 22.8846153846154 7.38301282051282  22.8233173076923 7.53966346153846  22.7007211538462 7.66225961538461  C 22.578125 7.78485576923077  22.4214743589744 7.84615384615384  22.2307692307692 7.84615384615384  C 22.0400641025641 7.84615384615384  21.8834134615385 7.78485576923077  21.7608173076923 7.66225961538461  C 21.6382211538462 7.53966346153846  21.5769230769231 7.38301282051282  21.5769230769231 7.19230769230769  L 21.5769230769231 0.653846153846155  C 21.5769230769231 0.463141025641024  21.6382211538462 0.306490384615386  21.7608173076923 0.183894230769231  C 21.8834134615385 0.0612980769230758  22.0400641025641 0  22.2307692307692 0  C 22.4214743589744 0  22.578125 0.0612980769230758  22.7007211538462 0.183894230769231  Z M 31.3846153846154 3.26923076923077  C 31.3846153846154 3.4463141025641  31.3233173076923 3.60296474358974  31.2007211538462 3.73918269230769  L 25.9699519230769 8.96995192307692  C 25.8201121794872 9.09254807692308  25.6634615384615 9.15384615384616  25.5 9.15384615384616  C 25.3365384615385 9.15384615384616  25.1798878205128 9.09254807692308  25.0300480769231 8.96995192307692  C 24.9074519230769 8.83373397435897  24.8461538461538 8.67708333333333  24.8461538461538 8.5  C 24.8461538461538 8.32291666666667  24.9074519230769 8.16626602564102  25.0300480769231 8.03004807692308  L 30.2608173076923 2.79927884615384  C 30.3970352564103 2.67668269230769  30.5536858974359 2.61538461538461  30.7307692307692 2.61538461538461  C 30.9078525641026 2.61538461538461  31.0645032051282 2.67668269230769  31.2007211538462 2.79927884615384  C 31.3233173076923 2.93549679487179  31.3846153846154 3.09214743589743  31.3846153846154 3.26923076923077  Z " fill-rule="nonzero" fill="#d7d7d7" stroke="none" fill-opacity="0.243137254901961" transform="matrix(1 0 0 1 340 165 )" />
  </g>
</svg>