<?xml version="1.0" encoding="utf-8"?>
<svg version="1.1" xmlns:xlink="http://www.w3.org/1999/xlink" width="32px" height="32px" xmlns="http://www.w3.org/2000/svg">
  <g transform="matrix(1 0 0 1 -340 -346 )">
    <path d="M 21.6875 6.1875  C 19.9513888888889 5.17361111111111  18.0555555555556 4.66666666666667  16 4.66666666666667  C 13.9444444444444 4.66666666666667  12.0486111111111 5.17361111111111  10.3125 6.1875  C 8.57638888888889 7.20138888888889  7.20138888888889 8.57638888888889  6.1875 10.3125  C 5.17361111111111 12.0486111111111  4.66666666666667 13.9444444444444  4.66666666666667 16  C 4.66666666666667 18.0555555555556  5.17361111111111 19.9513888888889  6.1875 21.6875  C 7.20138888888889 23.4236111111111  8.57638888888889 24.7986111111111  10.3125 25.8125  C 12.0486111111111 26.8263888888889  13.9444444444444 27.3333333333333  16 27.3333333333333  C 18.0555555555556 27.3333333333333  19.9513888888889 26.8263888888889  21.6875 25.8125  C 23.4236111111111 24.7986111111111  24.7986111111111 23.4236111111111  25.8125 21.6875  C 26.8263888888889 19.9513888888889  27.3333333333333 18.0555555555556  27.3333333333333 16  C 27.3333333333333 13.9444444444444  26.8263888888889 12.0486111111111  25.8125 10.3125  C 24.7986111111111 8.57638888888889  23.4236111111111 7.20138888888889  21.6875 6.1875  Z M 29.8541666666667 7.96875  C 31.2847222222222 10.4201388888889  32 13.0972222222222  32 16  C 32 18.9027777777778  31.2847222222222 21.5798611111111  29.8541666666667 24.03125  C 28.4236111111111 26.4826388888889  26.4826388888889 28.4236111111111  24.03125 29.8541666666667  C 21.5798611111111 31.2847222222222  18.9027777777778 32  16 32  C 13.0972222222222 32  10.4201388888889 31.2847222222222  7.96875 29.8541666666667  C 5.51736111111111 28.4236111111111  3.57638888888889 26.4826388888889  2.14583333333333 24.03125  C 0.715277777777778 21.5798611111111  0 18.9027777777778  0 16  C 0 13.0972222222222  0.715277777777778 10.4201388888889  2.14583333333333 7.96875  C 3.57638888888889 5.51736111111111  5.51736111111111 3.57638888888889  7.96875 2.14583333333333  C 10.4201388888889 0.715277777777775  13.0972222222222 0  16 0  C 18.9027777777778 0  21.5798611111111 0.715277777777775  24.03125 2.14583333333333  C 26.4826388888889 3.57638888888889  28.4236111111111 5.51736111111111  29.8541666666667 7.96875  Z " fill-rule="nonzero" fill="#d7d7d7" stroke="none" fill-opacity="0.203921568627451" transform="matrix(1 0 0 1 340 346 )" />
  </g>
</svg>