<?xml version="1.0" encoding="utf-8"?>
<svg version="1.1" xmlns:xlink="http://www.w3.org/1999/xlink" width="15px" height="11px" xmlns="http://www.w3.org/2000/svg">
  <g transform="matrix(1 0 0 1 -337 -35 )">
    <path d="M 1.22731965282139 4.53264078716096  C 1.3442252647381 4.64945785698954  1.53422125905627 4.6509076215893  1.6529246724491 4.53588836663307  C 3.23043167796345 3.04827071163291  5.32382338416545 2.21873496670359  7.50041025365652 2.21874041329044  C 9.67678369187314 2.21883499951784  11.7699349587851 3.04836835468739  13.3472410579107 4.53588836663306  C 13.4660163564391 4.65073049084251  13.6558658419939 4.64928184417802  13.7728460775384 4.53264078716096  C 13.7728460775384 4.53264078716096  14.9082293145144 3.39598797192633  14.9082293145144 3.39598797192633  C 14.9674618045367 3.33682795474095  15.0004861344719 3.25669228842773  14.9999945903725 3.17331361215159  C 14.999503046273 3.08993493587545  14.9655361563146 3.01018788332252  14.9056102067013 2.95171910014316  C 10.765686833174 -0.983906366714391  4.23447889718585 -0.983906366714384  0.0945555236585278 2.95171910014317  C 0.0345858798244194 3.01014449171851  0.000559834348734967 3.08986732443013  0 3.17324611775517  C -0.000546141427491875 3.25662491108021  0.0324195230917894 3.33678493747059  0.0916090273688042 3.39598797192632  C 0.0916090273688042 3.39598797192632  1.22731965282139 4.53264078716096  1.22731965282139 4.53264078716096  Z M 3.87772128446801 7.18353771285431  C 3.9946016277155 7.30026504734906  4.183476061867 7.30272872667319  4.30337648689891 7.18908996203059  C 5.18926867716476 6.38891074741742  6.34159248568614 5.94555347469045  7.53671888997917 5.94505954365232  C 8.73263577513188 5.94498645033595  9.8858751192908 6.38838167047309  10.7723532826109 7.18908996203057  C 10.8922537076429 7.30272872667317  11.0811281417944 7.30026504734907  11.1980084850418 7.18353771285433  C 11.1980084850418 7.18353771285433  12.3322158859805 6.04042758832721  12.3322158859805 6.04042758832721  C 12.3919459596381 5.98046821441547  12.4250875544249 5.89912810172606  12.4242260383568 5.81460513738673  C 12.4233645222886 5.7300821730474  12.3885718012507 5.64943101199252  12.3276319068775 5.59069540504899  C 9.62812781607619 3.08592981447862  5.4476019534336 3.08592981447862  2.74809786263239 5.59069540504897  C 2.68712004371565 5.64943029843473  2.65232950362929 5.73012187004798  2.65152926591412 5.81467214752902  C 2.65072902819901 5.89922242501006  2.68398607034857 5.98055480406218  2.74384131060805 6.0404275883272  C 2.74384131060805 6.0404275883272  3.87772128446801 7.18353771285431  3.87772128446801 7.18353771285431  Z M 7.50008528896109 10.7575757575758  C 7.58192079928784 10.7575757575758  7.66035154486019 10.7246429157798  7.71787858872443 10.6661249848847  C 7.71787858872443 10.6661249848847  9.68031084764459 8.67499335895928  9.68031084764459 8.67499335895928  C 9.7409850523045 8.6151250431312  9.77439872122585 8.53273813977281  9.7726628592082 8.44728426572724  C 9.77092699719054 8.36183039168168  9.73419546330371 8.28088379735511  9.67114060344397 8.22355604142271  C 8.41785809274143 7.15780455184899  6.58231248518092 7.15780455184899  5.32902997447832 8.22355604142271  C 5.26593136230696 8.28083770382822  5.22913968813259 8.36175882032193  5.22734182180989 8.44721313321756  C 5.22554395548718 8.53266744611318  5.25889925854335 8.61508034898289  5.3195322215563 8.6749933589593  C 5.3195322215563 8.6749933589593  7.2822919891978 10.6661249848847  7.2822919891978 10.6661249848847  C 7.33981903306204 10.7246429157798  7.41824977863439 10.7575757575758  7.50008528896109 10.7575757575758  Z " fill-rule="nonzero" fill="#000000" stroke="none" transform="matrix(1 0 0 1 337 35 )" />
  </g>
</svg>