<?xml version="1.0" encoding="utf-8"?>
<svg version="1.1" xmlns:xlink="http://www.w3.org/1999/xlink" width="20px" height="20px" xmlns="http://www.w3.org/2000/svg">
  <g transform="matrix(1 0 0 1 -332 -73 )">
    <path d="M 14.53125 17.5551354757404  L 13.6658653846154 12.2495274102079  L 17.34375 8.50661625708886  L 12.2716346153846 7.72526780088217  L 10 2.91115311909263  L 7.72836538461539 7.72526780088217  L 2.65625 8.50661625708886  L 6.33413461538461 12.2495274102079  L 5.45673076923077 17.5551354757404  L 10 15.0472589792061  L 14.53125 17.5551354757404  Z M 19.3269230769231 7.17076244486451  C 19.775641025641 7.24637681159421  20 7.43961352657002  20 7.75047258979207  C 20 7.93530770846462  19.8958333333333 8.13694601974376  19.6875 8.35538752362947  L 15.3245192307692 12.8166351606805  L 16.3581730769231 19.1178323881538  C 16.3661858974359 19.1766435622768  16.3701923076923 19.2606595253098  16.3701923076923 19.3698802772527  C 16.3701923076923 19.7899600924175  16.2059294871795 20  15.8774038461538 20  C 15.7251602564103 20  15.5649038461538 19.9495904221802  15.3966346153846 19.8487712665407  L 11.3564635997252 17.6221733116461  L 10 16.8746061751733  L 4.60336538461539 19.8487712665407  C 4.42708333333334 19.9495904221802  4.26682692307692 20  4.12259615384615 20  C 3.95432692307692 20  3.828125 19.9390884268011  3.74399038461539 19.8172652804033  C 3.65985576923077 19.6954421340055  3.61778846153846 19.5463137996219  3.61778846153846 19.3698802772527  C 3.61778846153846 19.3194706994329  3.62580128205128 19.2354547363999  3.64182692307692 19.1178323881538  L 4.67548076923077 12.8166351606805  L 0.300480769230769 8.35538752362947  C 0.100160256410256 8.12854442344044  0 7.9269061121613  0 7.75047258979207  C 0 7.43961352657002  0.224358974358975 7.24637681159421  0.673076923076924 7.17076244486451  L 6.70673076923077 6.25078764965343  L 9.41105769230769 0.516698172652812  C 9.56330128205128 0.172232724217604  9.75961538461539 0  10 0  C 10.2403846153846 0  10.4366987179487 0.172232724217604  10.5889423076923 0.516698172652812  L 13.2932692307692 6.25078764965343  L 19.3269230769231 7.17076244486451  Z " fill-rule="nonzero" fill="#455a64" stroke="none" transform="matrix(1 0 0 1 332 73 )" />
  </g>
</svg>