<?xml version="1.0" encoding="utf-8"?>
<svg version="1.1" xmlns:xlink="http://www.w3.org/1999/xlink" width="20px" height="20px" xmlns="http://www.w3.org/2000/svg">
  <defs>
    <filter x="240px" y="49px" width="20px" height="20px" filterUnits="userSpaceOnUse" id="filter1">
      <feOffset dx="1" dy="1" in="SourceAlpha" result="shadowOffsetInner" />
      <feGaussianBlur stdDeviation="2.5" in="shadowOffsetInner" result="shadowGaussian" />
      <feComposite in2="shadowGaussian" operator="atop" in="SourceAlpha" result="shadowComposite" />
      <feColorMatrix type="matrix" values="0 0 0 0 0  0 0 0 0 0  0 0 0 0 0  0 0 0 0.698039215686274 0  " in="shadowComposite" />
    </filter>
    <g id="widget2">
      <path d="M 249 53  C 251.8 53  254 55.2  254 58  C 254 60.8  251.8 63  249 63  C 246.2 63  244 60.8  244 58  C 244 55.2  246.2 53  249 53  Z " fill-rule="nonzero" fill="#009dd9" stroke="none" />
      <path d="M 249 53.5  C 251.52 53.5  253.5 55.48  253.5 58  C 253.5 60.52  251.52 62.5  249 62.5  C 246.48 62.5  244.5 60.52  244.5 58  C 244.5 55.48  246.48 53.5  249 53.5  Z " stroke-width="1" stroke="#ffffff" fill="none" />
    </g>
  </defs>
  <g transform="matrix(1 0 0 1 -240 -49 )">
    <use xlink:href="#widget2" filter="url(#filter1)" />
    <use xlink:href="#widget2" />
  </g>
</svg>