<?xml version="1.0" encoding="utf-8"?>
<svg version="1.1" xmlns:xlink="http://www.w3.org/1999/xlink" width="20px" height="20px" xmlns="http://www.w3.org/2000/svg">
  <defs>
    <filter x="240px" y="94px" width="20px" height="20px" filterUnits="userSpaceOnUse" id="filter3">
      <feOffset dx="1" dy="1" in="SourceAlpha" result="shadowOffsetInner" />
      <feGaussianBlur stdDeviation="2.5" in="shadowOffsetInner" result="shadowGaussian" />
      <feComposite in2="shadowGaussian" operator="atop" in="SourceAlpha" result="shadowComposite" />
      <feColorMatrix type="matrix" values="0 0 0 0 0  0 0 0 0 0  0 0 0 0 0  0 0 0 0.698039215686274 0  " in="shadowComposite" />
    </filter>
    <g id="widget4">
      <path d="M 249 98  C 251.8 98  254 100.2  254 103  C 254 105.8  251.8 108  249 108  C 246.2 108  244 105.8  244 103  C 244 100.2  246.2 98  249 98  Z " fill-rule="nonzero" fill="#7f7f7f" stroke="none" />
      <path d="M 249 98.5  C 251.52 98.5  253.5 100.48  253.5 103  C 253.5 105.52  251.52 107.5  249 107.5  C 246.48 107.5  244.5 105.52  244.5 103  C 244.5 100.48  246.48 98.5  249 98.5  Z " stroke-width="1" stroke="#ffffff" fill="none" />
    </g>
  </defs>
  <g transform="matrix(1 0 0 1 -240 -94 )">
    <use xlink:href="#widget4" filter="url(#filter3)" />
    <use xlink:href="#widget4" />
  </g>
</svg>