<?xml version="1.0" encoding="utf-8"?>
<svg version="1.1" xmlns:xlink="http://www.w3.org/1999/xlink" width="7px" height="7px" xmlns="http://www.w3.org/2000/svg">
  <g transform="matrix(1 0 0 1 -212 -202 )">
    <path d="M 215.5 203  C 216.9 203  218 204.1  218 205.5  C 218 206.9  216.9 208  215.5 208  C 214.1 208  213 206.9  213 205.5  C 213 204.1  214.1 203  215.5 203  Z " fill-rule="nonzero" fill="#ffffff" stroke="none" />
    <path d="M 215.5 203  C 216.9 203  218 204.1  218 205.5  C 218 206.9  216.9 208  215.5 208  C 214.1 208  213 206.9  213 205.5  C 213 204.1  214.1 203  215.5 203  Z " stroke-width="2" stroke="#61a5e8" fill="none" />
  </g>
</svg>