<?xml version="1.0" encoding="utf-8"?>
<svg version="1.1" xmlns:xlink="http://www.w3.org/1999/xlink" width="314px" height="38px" xmlns="http://www.w3.org/2000/svg">
  <g transform="matrix(1 0 0 1 -33 -516 )">
    <path d="M 313 37  L 0.297114440870172 37  C 0.63257823246961 37  -0.515244957875948 30.5917936079574  0.297114440870172 30.6253070010103  C 1.1094738396163 30.6588203940632  19.6146672167238 29.3503684012123  30.4807906531414 27.1192258515659  C 41.346914089559 24.8880833019195  47.3836493320133 24.8880833019195  57.0424257199401 21.0632675025257  C 66.7012021078669 17.2384517031319  76.3599784957937 15.2919253618909  86.0187548837204 11.1654341333196  C 95.6775312716472 7.0389429047483  107.751001756556 5.76400430495036  113.78773699901 4.17033105520292  C 119.824472241464 2.57665780545549  134.312636823354 0.982984555708065  143.971413211281 0.640240632079462  C 153.630189599208 0.297496708450859  156.04488369619 -0.610688694039368  169.325701229589 0.640240632079462  C 182.606518762988 1.89116995819829  187.435906956952 3.21412710535447  199.50937744186 5.12653500505138  C 211.582847926769 7.0389429047483  212.79019497526 8.27976306300223  227.27835955715 11.1654341333196  C 241.76652413904 14.051105203637  250.217953478476 13.7323705536875  257.462035769421 15.0073091534855  C 264.706118060366 16.2822477532834  264.706118060366 15.0073091534855  285.23101788471 19.1508596028288  C 305.755917709055 23.2944100521721  313 26.8004912016164  313 26.8004912016164  C 313 26.8004912016164  313 37  313 37  Z " fill-rule="nonzero" fill="#61a5e8" stroke="none" fill-opacity="0.498039215686275" transform="matrix(1 0 0 1 33 516 )" />
  </g>
</svg>