<?xml version="1.0" encoding="utf-8"?>
<svg version="1.1" xmlns:xlink="http://www.w3.org/1999/xlink" width="314px" height="32px" xmlns="http://www.w3.org/2000/svg">
  <g transform="matrix(1 0 0 1 -33 -523 )">
    <path d="M 313 31  L 0.297114440870172 31  C 0.63257823246961 31  -0.515244957875948 26.424840908218  0.297114440870172 26.4589458853835  C 1.1094738396163 26.493050862549  19.6146672167238 25.8102238690097  30.4807906531414 23.5396968117015  C 41.346914089559 21.2691697543932  47.3836493320133 21.917891770767  57.0424257199401 18.0255596725243  C 66.7012021078669 14.1332275742816  77.5673255442845 12.1870615251602  87.2261019322113 9.59217345966506  C 96.8848783201381 6.99728539416991  106.543654708065 6.99728539416991  116.202431095992 4.07803632048788  C 125.861207483918 1.15878724680584  133.105289774864 0.534498319892607  142.76406616279 0.185704222245161  C 152.422842550717 -0.163089875402281  157.252230744681 -0.114223696481178  170.53304827808 1.15878724680584  C 183.813865811479 2.43179819009287  187.435906956952 3.42931430411409  199.50937744186 5.37548035323545  C 211.582847926769 7.32164640235681  211.582847926769 7.30428604931905  226.071012508659 10.2408954760388  C 240.559177090549 13.1775049027586  245.388565284512 12.1870615251602  256.25468872093 13.4845055579078  C 267.120812157348 14.7819495906553  270.74285330282 14.1332275742816  285.23101788471 16.0793936234029  C 299.719182466601 18.0255596725243  313 22.5666137871408  313 22.5666137871408  C 313 22.5666137871408  313 31  313 31  Z " fill-rule="nonzero" fill="#7ecf51" stroke="none" fill-opacity="0.498039215686275" transform="matrix(1 0 0 1 33 523 )" />
  </g>
</svg>