<?xml version="1.0" encoding="utf-8"?>
<svg version="1.1" xmlns:xlink="http://www.w3.org/1999/xlink" width="314px" height="24px" xmlns="http://www.w3.org/2000/svg">
  <g transform="matrix(1 0 0 1 -34 -531 )">
    <path d="M 311.788793265672 23  L 0.298264949837759 23  C 0.635027749655734 23  -0.517240128298511 20.4032014121467  0.298264949837759 20.4368887422785  C 1.11377002797404 20.4705760724103  20.9026428407399 18.1941663917722  30.5988206717527 17.5533885773418  C 40.2949985027655 16.9126107629115  48.7791541049017 16.2718329484811  58.4753319359145 14.6698884124052  C 68.1715097669272 13.0679438763293  80.2917320556932 12.1067771546837  88.7758876578294 10.5048326186078  C 97.2600432599656 8.90288808253185  103.320154404349 8.90288808253185  110.592287777608 6.98055463924073  C 117.864421150868 5.05822119594962  127.560598981881 3.4562766598737  143.316887957276 1.53394321658258  C 159.073176932672 -0.388390226708529  157.861154703796 -0.388390226708529  169.981376992561 0.893165402152213  C 182.101599281327 2.17472103101295  186.949688196834 2.49510993822814  199.0699104856 4.41744338151925  C 211.190132774366 6.33977682481036  213.614177232119 8.58249917531666  226.946421749762 9.54366589696221  C 240.278666267404 10.5048326186078  246.338777411787 9.8640548041774  256.0349552428 10.825221525823  C 265.731133073813 11.7863882474685  269.367199760442 11.7863882474685  283.911466506962 12.7475549691141  C 298.455733253481 13.7087216907596  313 16.9126107629115  313 16.9126107629115  C 313 16.9126107629115  311.788793265672 23  311.788793265672 23  Z " fill-rule="nonzero" fill="#eecb5f" stroke="none" fill-opacity="0.498039215686275" transform="matrix(1 0 0 1 34 531 )" />
  </g>
</svg>