<?xml version="1.0" encoding="utf-8"?>
<svg version="1.1" xmlns:xlink="http://www.w3.org/1999/xlink" width="11px" height="6px" xmlns="http://www.w3.org/2000/svg">
  <g transform="matrix(1 0 0 1 -171 -508 )">
    <path d="M 176.5 509  C 179.02 509  181 509.88  181 511  C 181 512.12  179.02 513  176.5 513  C 173.98 513  172 512.12  172 511  C 172 509.88  173.98 509  176.5 509  Z " fill-rule="nonzero" fill="#ffffff" stroke="none" />
    <path d="M 176.5 509  C 179.02 509  181 509.88  181 511  C 181 512.12  179.02 513  176.5 513  C 173.98 513  172 512.12  172 511  C 172 509.88  173.98 509  176.5 509  Z " stroke-width="2" stroke="#7ecf51" fill="none" />
  </g>
</svg>