<?xml version="1.0" encoding="utf-8"?>
<svg version="1.1" xmlns:xlink="http://www.w3.org/1999/xlink" width="11px" height="6px" xmlns="http://www.w3.org/2000/svg">
  <g transform="matrix(1 0 0 1 -171 -498 )">
    <path d="M 176.5 499  C 179.02 499  181 499.88  181 501  C 181 502.12  179.02 503  176.5 503  C 173.98 503  172 502.12  172 501  C 172 499.88  173.98 499  176.5 499  Z " fill-rule="nonzero" fill="#ffffff" stroke="none" />
    <path d="M 176.5 499  C 179.02 499  181 499.88  181 501  C 181 502.12  179.02 503  176.5 503  C 173.98 503  172 502.12  172 501  C 172 499.88  173.98 499  176.5 499  Z " stroke-width="2" stroke="#61a5e8" fill="none" />
  </g>
</svg>