<?xml version="1.0" encoding="utf-8"?>
<svg version="1.1" xmlns:xlink="http://www.w3.org/1999/xlink" width="11px" height="6px" xmlns="http://www.w3.org/2000/svg">
  <g transform="matrix(1 0 0 1 -171 -521 )">
    <path d="M 176.5 522.5  C 178.74 522.5  180.5 523.16  180.5 524  C 180.5 524.84  178.74 525.5  176.5 525.5  C 174.26 525.5  172.5 524.84  172.5 524  C 172.5 523.16  174.26 522.5  176.5 522.5  Z " fill-rule="nonzero" fill="#ffffff" stroke="none" />
    <path d="M 176.5 522  C 179.02 522  181 522.88  181 524  C 181 525.12  179.02 526  176.5 526  C 173.98 526  172 525.12  172 524  C 172 522.88  173.98 522  176.5 522  Z " stroke-width="2" stroke="#eecb5f" fill="none" stroke-opacity="0.498039215686275" />
  </g>
</svg>